<svg version="1.1" baseProfile="full" xmlns="http://www.w3.org/2000/svg"
width="1024" height="1024"
viewBox="-54 -54 81 81"
>
<rect x="-54" y="-54" width="100%" height="100%" fill="white" />
<path stroke="green" stroke-width="0.04" stroke-linecap="round" fill="none"
transform="scale(1 -1)"
d="	M 0 0
	L 0 1
	L 1 1
	L 2 1
	L 2 2
	L 1 2
	L 0 2
	L 0 3
	L 1 3
	L 1 2
	L 1 1
	L 2 1
	L 2 2
	L 2 3
	L 3 3
	L 4 3
	L 4 2
	L 4 1
	L 5 1
	L 5 2
	L 5 3
	L 6 3
	L 6 4
	L 7 4
	L 8 4
	L 8 5
	L 7 5
	L 6 5
	L 6 6
	L 5 6
	L 5 7
	L 5 8
	L 4 8
	L 4 7
	L 4 6
	L 3 6
	L 2 6
	L 2 7
	L 2 8
	L 1 8
	L 1 7
	L 1 6
	L 4.441e-16 6
	L 4.441e-16 7
	L 1 7
	L 2 7
	L 2 8
	L 1 8
	L 4.441e-16 8
	L 4.441e-16 9
	L 1 9
	L 1 8
	L 1 7
	L 2 7
	L 2 8
	L 2 9
	L 3 9
	L 3 8
	L 2 8
	L 1 8
	L 1 7
	L 2 7
	L 3 7
	L 3 6
	L 3 5
	L 2 5
	L 1 5
	L 1 4
	L 2 4
	L 3 4
	L 3 3
	L 4 3
	L 4 2
	L 4 1
	L 5 1
	L 5 2
	L 5 3
	L 6 3
	L 6 4
	L 7 4
	L 8 4
	L 8 5
	L 7 5
	L 6 5
	L 6 6
	L 6 7
	L 7 7
	L 8 7
	L 8 8
	L 7 8
	L 6 8
	L 6 9
	L 7 9
	L 7 8
	L 7 7
	L 8 7
	L 8 8
	L 8 9
	L 9 9
	L 10 9
	L 10 8
	L 10 7
	L 11 7
	L 11 8
	L 11 9
	L 12 9
	L 12 8
	L 11 8
	L 10 8
	L 10 7
	L 11 7
	L 12 7
	L 12 6
	L 12 5
	L 11 5
	L 10 5
	L 10 4
	L 11 4
	L 12 4
	L 12 3
	L 13 3
	L 13 2
	L 13 1
	L 14 1
	L 14 2
	L 14 3
	L 15 3
	L 15 4
	L 16 4
	L 17 4
	L 17 5
	L 16 5
	L 15 5
	L 15 6
	L 15 7
	L 16 7
	L 17 7
	L 17 8
	L 16 8
	L 15 8
	L 15 9
	L 16 9
	L 16 8
	L 16 7
	L 17 7
	L 17 8
	L 17 9
	L 18 9
	L 18 10
	L 19 10
	L 20 10
	L 20 11
	L 19 11
	L 18 11
	L 18 12
	L 19 12
	L 19 11
	L 19 10
	L 20 10
	L 20 11
	L 20 12
	L 21 12
	L 22 12
	L 22 11
	L 22 10
	L 23 10
	L 23 11
	L 23 12
	L 24 12
	L 24 13
	L 25 13
	L 26 13
	L 26 14
	L 25 14
	L 24 14
	L 24 15
	L 23 15
	L 23 16
	L 23 17
	L 22 17
	L 22 16
	L 22 15
	L 21 15
	L 20 15
	L 20 16
	L 20 17
	L 19 17
	L 19 16
	L 19 15
	L 18 15
	L 18 16
	L 19 16
	L 20 16
	L 20 17
	L 19 17
	L 18 17
	L 18 18
	L 17 18
	L 17 19
	L 17 20
	L 16 20
	L 16 19
	L 16 18
	L 15 18
	L 15 19
	L 16 19
	L 17 19
	L 17 20
	L 16 20
	L 15 20
	L 15 21
	L 15 22
	L 16 22
	L 17 22
	L 17 23
	L 16 23
	L 15 23
	L 15 24
	L 14 24
	L 14 25
	L 14 26
	L 13 26
	L 13 25
	L 13 24
	L 12 24
	L 12 23
	L 11 23
	L 10 23
	L 10 22
	L 11 22
	L 12 22
	L 12 21
	L 12 20
	L 11 20
	L 10 20
	L 10 19
	L 11 19
	L 12 19
	L 12 18
	L 11 18
	L 11 19
	L 11 20
	L 10 20
	L 10 19
	L 10 18
	L 9 18
	L 8 18
	L 8 19
	L 8 20
	L 7 20
	L 7 19
	L 7 18
	L 6 18
	L 6 19
	L 7 19
	L 8 19
	L 8 20
	L 7 20
	L 6 20
	L 6 21
	L 6 22
	L 7 22
	L 8 22
	L 8 23
	L 7 23
	L 6 23
	L 6 24
	L 5 24
	L 5 25
	L 5 26
	L 4 26
	L 4 25
	L 4 24
	L 3 24
	L 3 23
	L 2 23
	L 1 23
	L 1 22
	L 2 22
	L 3 22
	L 3 21
	L 3 20
	L 2 20
	L 1 20
	L 1 19
	L 2 19
	L 3 19
	L 3 18
	L 2 18
	L 2 19
	L 2 20
	L 1 20
	L 1 19
	L 1 18
	L 2.665e-15 18
	L 2.665e-15 19
	L 1 19
	L 2 19
	L 2 20
	L 1 20
	L 2.665e-15 20
	L 2.665e-15 21
	L 1 21
	L 1 20
	L 1 19
	L 2 19
	L 2 20
	L 2 21
	L 3 21
	L 4 21
	L 4 20
	L 4 19
	L 5 19
	L 5 20
	L 5 21
	L 6 21
	L 6 22
	L 7 22
	L 8 22
	L 8 23
	L 7 23
	L 6 23
	L 6 24
	L 5 24
	L 5 25
	L 5 26
	L 4 26
	L 4 25
	L 4 24
	L 3 24
	L 2 24
	L 2 25
	L 2 26
	L 1 26
	L 1 25
	L 1 24
	L 2.22e-15 24
	L 2.22e-15 25
	L 1 25
	L 2 25
	L 2 26
	L 1 26
	L 2.22e-15 26
	L 2.22e-15 27
	L -1 27
	L -1 28
	L -1 29
	L -2 29
	L -2 28
	L -2 27
	L -3 27
	L -3 28
	L -2 28
	L -1 28
	L -1 29
	L -2 29
	L -3 29
	L -3 30
	L -3 31
	L -2 31
	L -1 31
	L -1 32
	L -2 32
	L -3 32
	L -3 33
	L -4 33
	L -4 34
	L -4 35
	L -5 35
	L -5 34
	L -5 33
	L -6 33
	L -6 32
	L -7 32
	L -8 32
	L -8 31
	L -7 31
	L -6 31
	L -6 30
	L -6 29
	L -7 29
	L -8 29
	L -8 28
	L -7 28
	L -6 28
	L -6 27
	L -7 27
	L -7 28
	L -7 29
	L -8 29
	L -8 28
	L -8 27
	L -9 27
	L -9 28
	L -8 28
	L -7 28
	L -7 29
	L -8 29
	L -9 29
	L -9 30
	L -8 30
	L -8 29
	L -8 28
	L -7 28
	L -7 29
	L -7 30
	L -6 30
	L -5 30
	L -5 29
	L -5 28
	L -4 28
	L -4 29
	L -4 30
	L -3 30
	L -3 31
	L -2 31
	L -1 31
	L -1 32
	L -2 32
	L -3 32
	L -3 33
	L -4 33
	L -4 34
	L -4 35
	L -5 35
	L -5 34
	L -5 33
	L -6 33
	L -7 33
	L -7 34
	L -7 35
	L -8 35
	L -8 34
	L -8 33
	L -9 33
	L -9 34
	L -8 34
	L -7 34
	L -7 35
	L -8 35
	L -9 35
	L -9 36
	L -9 37
	L -8 37
	L -7 37
	L -7 38
	L -8 38
	L -9 38
	L -9 39
	L -8 39
	L -8 38
	L -8 37
	L -7 37
	L -7 38
	L -7 39
	L -6 39
	L -5 39
	L -5 38
	L -5 37
	L -4 37
	L -4 38
	L -4 39
	L -3 39
	L -3 40
	L -2 40
	L -1 40
	L -1 41
	L -2 41
	L -3 41
	L -3 42
	L -4 42
	L -4 43
	L -4 44
	L -5 44
	L -5 43
	L -5 42
	L -6 42
	L -7 42
	L -7 43
	L -7 44
	L -8 44
	L -8 43
	L -8 42
	L -9 42
	L -9 43
	L -8 43
	L -7 43
	L -7 44
	L -8 44
	L -9 44
	L -9 45
	L -10 45
	L -10 46
	L -10 47
	L -11 47
	L -11 46
	L -11 45
	L -12 45
	L -12 46
	L -11 46
	L -10 46
	L -10 47
	L -11 47
	L -12 47
	L -12 48
	L -12 49
	L -11 49
	L -10 49
	L -10 50
	L -11 50
	L -12 50
	L -12 51
	L -13 51
	L -13 52
	L -13 53
	L -14 53
	L -14 52
	L -14 51
	L -15 51
	L -15 50
	L -16 50
	L -17 50
	L -17 49
	L -16 49
	L -15 49
	L -15 48
	L -15 47
	L -16 47
	L -17 47
	L -17 46
	L -16 46
	L -15 46
	L -15 45
	L -16 45
	L -16 46
	L -16 47
	L -17 47
	L -17 46
	L -17 45
	L -18 45
	L -18 44
	L -19 44
	L -20 44
	L -20 43
	L -19 43
	L -18 43
	L -18 42
	L -19 42
	L -19 43
	L -19 44
	L -20 44
	L -20 43
	L -20 42
	L -21 42
	L -22 42
	L -22 43
	L -22 44
	L -23 44
	L -23 43
	L -23 42
	L -24 42
	L -24 41
	L -25 41
	L -26 41
	L -26 40
	L -25 40
	L -24 40
	L -24 39
	L -23 39
	L -23 38
	L -23 37
	L -22 37
	L -22 38
	L -22 39
	L -21 39
	L -20 39
	L -20 38
	L -20 37
	L -19 37
	L -19 38
	L -19 39
	L -18 39
	L -18 38
	L -19 38
	L -20 38
	L -20 37
	L -19 37
	L -18 37
	L -18 36
	L -18 35
	L -19 35
	L -20 35
	L -20 34
	L -19 34
	L -18 34
	L -18 33
	L -19 33
	L -19 34
	L -19 35
	L -20 35
	L -20 34
	L -20 33
	L -21 33
	L -22 33
	L -22 34
	L -22 35
	L -23 35
	L -23 34
	L -23 33
	L -24 33
	L -24 32
	L -25 32
	L -26 32
	L -26 31
	L -25 31
	L -24 31
	L -24 30
	L -23 30
	L -23 29
	L -23 28
	L -22 28
	L -22 29
	L -22 30
	L -21 30
	L -20 30
	L -20 29
	L -20 28
	L -19 28
	L -19 29
	L -19 30
	L -18 30
	L -18 29
	L -19 29
	L -20 29
	L -20 28
	L -19 28
	L -18 28
	L -18 27
	L -19 27
	L -19 28
	L -19 29
	L -20 29
	L -20 28
	L -20 27
	L -21 27
	L -21 28
	L -20 28
	L -19 28
	L -19 29
	L -20 29
	L -21 29
	L -21 30
	L -21 31
	L -20 31
	L -19 31
	L -19 32
	L -20 32
	L -21 32
	L -21 33
	L -22 33
	L -22 34
	L -22 35
	L -23 35
	L -23 34
	L -23 33
	L -24 33
	L -24 32
	L -25 32
	L -26 32
	L -26 31
	L -25 31
	L -24 31
	L -24 30
	L -24 29
	L -25 29
	L -26 29
	L -26 28
	L -25 28
	L -24 28
	L -24 27
	L -25 27
	L -25 28
	L -25 29
	L -26 29
	L -26 28
	L -26 27
	L -27 27
	L -27 26
	L -28 26
	L -29 26
	L -29 25
	L -28 25
	L -27 25
	L -27 24
	L -28 24
	L -28 25
	L -28 26
	L -29 26
	L -29 25
	L -29 24
	L -30 24
	L -31 24
	L -31 25
	L -31 26
	L -32 26
	L -32 25
	L -32 24
	L -33 24
	L -33 23
	L -34 23
	L -35 23
	L -35 22
	L -34 22
	L -33 22
	L -33 21
	L -32 21
	L -32 20
	L -32 19
	L -31 19
	L -31 20
	L -31 21
	L -30 21
	L -29 21
	L -29 20
	L -29 19
	L -28 19
	L -28 20
	L -28 21
	L -27 21
	L -27 20
	L -28 20
	L -29 20
	L -29 19
	L -28 19
	L -27 19
	L -27 18
	L -28 18
	L -28 19
	L -28 20
	L -29 20
	L -29 19
	L -29 18
	L -30 18
	L -30 19
	L -29 19
	L -28 19
	L -28 20
	L -29 20
	L -30 20
	L -30 21
	L -30 22
	L -29 22
	L -28 22
	L -28 23
	L -29 23
	L -30 23
	L -30 24
	L -31 24
	L -31 25
	L -31 26
	L -32 26
	L -32 25
	L -32 24
	L -33 24
	L -33 23
	L -34 23
	L -35 23
	L -35 22
	L -34 22
	L -33 22
	L -33 21
	L -33 20
	L -34 20
	L -35 20
	L -35 19
	L -34 19
	L -33 19
	L -33 18
	L -34 18
	L -34 19
	L -34 20
	L -35 20
	L -35 19
	L -35 18
	L -36 18
	L -37 18
	L -37 19
	L -37 20
	L -38 20
	L -38 19
	L -38 18
	L -39 18
	L -39 19
	L -38 19
	L -37 19
	L -37 20
	L -38 20
	L -39 20
	L -39 21
	L -39 22
	L -38 22
	L -37 22
	L -37 23
	L -38 23
	L -39 23
	L -39 24
	L -40 24
	L -40 25
	L -40 26
	L -41 26
	L -41 25
	L -41 24
	L -42 24
	L -42 23
	L -43 23
	L -44 23
	L -44 22
	L -43 22
	L -42 22
	L -42 21
	L -42 20
	L -43 20
	L -44 20
	L -44 19
	L -43 19
	L -42 19
	L -42 18
	L -43 18
	L -43 19
	L -43 20
	L -44 20
	L -44 19
	L -44 18
	L -45 18
	L -45 17
	L -46 17
	L -47 17
	L -47 16
	L -46 16
	L -45 16
	L -45 15
	L -46 15
	L -46 16
	L -46 17
	L -47 17
	L -47 16
	L -47 15
	L -48 15
	L -49 15
	L -49 16
	L -49 17
	L -50 17
	L -50 16
	L -50 15
	L -51 15
	L -51 14
	L -52 14
	L -53 14
	L -53 13
	L -52 13
	L -51 13
	L -51 12
	L -50 12
	L -50 11
	L -50 10
	L -49 10
	L -49 11
	L -49 12
	L -48 12
	L -47 12
	L -47 11
	L -47 10
	L -46 10
	L -46 11
	L -46 12
	L -45 12
	L -45 11
	L -46 11
	L -47 11
	L -47 10
	L -46 10
	L -45 10
	L -45 9
	L -44 9
	L -44 8
	L -44 7
	L -43 7
	L -43 8
	L -43 9
	L -42 9
	L -42 8
	L -43 8
	L -44 8
	L -44 7
	L -43 7
	L -42 7
	L -42 6
	L -42 5
	L -43 5
	L -44 5
	L -44 4
	L -43 4
	L -42 4
	L -42 3
	L -41 3
	L -41 2
	L -41 1
	L -40 1
	L -40 2
	L -40 3
	L -39 3
	L -39 4
	L -38 4
	L -37 4
	L -37 5
	L -38 5
	L -39 5
	L -39 6
	L -39 7
	L -38 7
	L -37 7
	L -37 8
	L -38 8
	L -39 8
	L -39 9
	L -38 9
	L -38 8
	L -38 7
	L -37 7
	L -37 8
	L -37 9
	L -36 9
	L -35 9
	L -35 8
	L -35 7
	L -34 7
	L -34 8
	L -34 9
	L -33 9
	L -33 8
	L -34 8
	L -35 8
	L -35 7
	L -34 7
	L -33 7
	L -33 6
	L -33 5
	L -34 5
	L -35 5
	L -35 4
	L -34 4
	L -33 4
	L -33 3
	L -32 3
	L -32 2
	L -32 1
	L -31 1
	L -31 2
	L -31 3
	L -30 3
	L -30 4
	L -29 4
	L -28 4
	L -28 5
	L -29 5
	L -30 5
	L -30 6
	L -30 7
	L -29 7
	L -28 7
	L -28 8
	L -29 8
	L -30 8
	L -30 9
	L -29 9
	L -29 8
	L -29 7
	L -28 7
	L -28 8
	L -28 9
	L -27 9
	L -27 8
	L -28 8
	L -29 8
	L -29 7
	L -28 7
	L -27 7
	L -27 6
	L -28 6
	L -28 7
	L -28 8
	L -29 8
	L -29 7
	L -29 6
	L -30 6
	L -31 6
	L -31 7
	L -31 8
	L -32 8
	L -32 7
	L -32 6
	L -33 6
	L -33 5
	L -34 5
	L -35 5
	L -35 4
	L -34 4
	L -33 4
	L -33 3
	L -32 3
	L -32 2
	L -32 1
	L -31 1
	L -31 2
	L -31 3
	L -30 3
	L -29 3
	L -29 2
	L -29 1
	L -28 1
	L -28 2
	L -28 3
	L -27 3
	L -27 2
	L -28 2
	L -29 2
	L -29 1
	L -28 1
	L -27 1
	L -27 4.846e-08
	L -26 4.308e-08
	L -26 -1
	L -26 -2
	L -25 -2
	L -25 -1
	L -25 3.769e-08
	L -24 3.231e-08
	L -24 -1
	L -25 -1
	L -26 -1
	L -26 -2
	L -25 -2
	L -24 -2
	L -24 -3
	L -24 -4
	L -25 -4
	L -26 -4
	L -26 -5
	L -25 -5
	L -24 -5
	L -24 -6
	L -23 -6
	L -23 -7
	L -23 -8
	L -22 -8
	L -22 -7
	L -22 -6
	L -21 -6
	L -21 -5
	L -20 -5
	L -19 -5
	L -19 -4
	L -20 -4
	L -21 -4
	L -21 -3
	L -21 -2
	L -20 -2
	L -19 -2
	L -19 -1
	L -20 -1
	L -21 -1
	L -21 1.615e-08
	L -20 1.077e-08
	L -20 -1
	L -20 -2
	L -19 -2
	L -19 -1
	L -19 5.384e-09
	L -18 -3.874e-13
	L -18 -1
	L -19 -1
	L -20 -1
	L -20 -2
	L -19 -2
	L -18 -2
	L -18 -3
	L -19 -3
	L -19 -2
	L -19 -1
	L -20 -1
	L -20 -2
	L -20 -3
	L -21 -3
	L -22 -3
	L -22 -2
	L -22 -1
	L -23 -1
	L -23 -2
	L -23 -3
	L -24 -3
	L -24 -4
	L -25 -4
	L -26 -4
	L -26 -5
	L -25 -5
	L -24 -5
	L -24 -6
	L -23 -6
	L -23 -7
	L -23 -8
	L -22 -8
	L -22 -7
	L -22 -6
	L -21 -6
	L -20 -6
	L -20 -7
	L -20 -8
	L -19 -8
	L -19 -7
	L -19 -6
	L -18 -6
	L -18 -7
	L -19 -7
	L -20 -7
	L -20 -8
	L -19 -8
	L -18 -8
	L -18 -9
	L -18 -10
	L -19 -10
	L -20 -10
	L -20 -11
	L -19 -11
	L -18 -11
	L -18 -12
	L -19 -12
	L -19 -11
	L -19 -10
	L -20 -10
	L -20 -11
	L -20 -12
	L -21 -12
	L -22 -12
	L -22 -11
	L -22 -10
	L -23 -10
	L -23 -11
	L -23 -12
	L -24 -12
	L -24 -13
	L -25 -13
	L -26 -13
	L -26 -14
	L -25 -14
	L -24 -14
	L -24 -15
	L -23 -15
	L -23 -16
	L -23 -17
	L -22 -17
	L -22 -16
	L -22 -15
	L -21 -15
	L -20 -15
	L -20 -16
	L -20 -17
	L -19 -17
	L -19 -16
	L -19 -15
	L -18 -15
	L -18 -16
	L -19 -16
	L -20 -16
	L -20 -17
	L -19 -17
	L -18 -17
	L -18 -18
	L -17 -18
	L -17 -19
	L -17 -20
	L -16 -20
	L -16 -19
	L -16 -18
	L -15 -18
	L -15 -19
	L -16 -19
	L -17 -19
	L -17 -20
	L -16 -20
	L -15 -20
	L -15 -21
	L -15 -22
	L -16 -22
	L -17 -22
	L -17 -23
	L -16 -23
	L -15 -23
	L -15 -24
	L -14 -24
	L -14 -25
	L -14 -26
	L -13 -26
	L -13 -25
	L -13 -24
	L -12 -24
	L -12 -23
	L -11 -23
	L -10 -23
	L -10 -22
	L -11 -22
	L -12 -22
	L -12 -21
	L -12 -20
	L -11 -20
	L -10 -20
	L -10 -19
	L -11 -19
	L -12 -19
	L -12 -18
	L -11 -18
	L -11 -19
	L -11 -20
	L -10 -20
	L -10 -19
	L -10 -18
	L -9 -18
	L -9 -17
	L -8 -17
	L -7 -17
	L -7 -16
	L -8 -16
	L -9 -16
	L -9 -15
	L -8 -15
	L -8 -16
	L -8 -17
	L -7 -17
	L -7 -16
	L -7 -15
	L -6 -15
	L -5 -15
	L -5 -16
	L -5 -17
	L -4 -17
	L -4 -16
	L -4 -15
	L -3 -15
	L -3 -14
	L -2 -14
	L -1 -14
	L -1 -13
	L -2 -13
	L -3 -13
	L -3 -12
	L -4 -12
	L -4 -11
	L -4 -10
	L -5 -10
	L -5 -11
	L -5 -12
	L -6 -12
	L -7 -12
	L -7 -11
	L -7 -10
	L -8 -10
	L -8 -11
	L -8 -12
	L -9 -12
	L -9 -11
	L -8 -11
	L -7 -11
	L -7 -10
	L -8 -10
	L -9 -10
	L -9 -9
	L -9 -8
	L -8 -8
	L -7 -8
	L -7 -7
	L -8 -7
	L -9 -7
	L -9 -6
	L -8 -6
	L -8 -7
	L -8 -8
	L -7 -8
	L -7 -7
	L -7 -6
	L -6 -6
	L -5 -6
	L -5 -7
	L -5 -8
	L -4 -8
	L -4 -7
	L -4 -6
	L -3 -6
	L -3 -5
	L -2 -5
	L -1 -5
	L -1 -4
	L -2 -4
	L -3 -4
	L -3 -3
	L -4 -3
	L -4 -2
	L -4 -1
	L -5 -1
	L -5 -2
	L -5 -3
	L -6 -3
	L -7 -3
	L -7 -2
	L -7 -1
	L -8 -1
	L -8 -2
	L -8 -3
	L -9 -3
	L -9 -2
	L -8 -2
	L -7 -2
	L -7 -1
	L -8 -1
	L -9 -1
	L -9 -4.846e-08
	L -8 -5.385e-08
	L -8 -1
	L -8 -2
	L -7 -2
	L -7 -1
	L -7 -5.923e-08
	L -6 -6.462e-08
	L -6 -1
	L -7 -1
	L -8 -1
	L -8 -2
	L -7 -2
	L -6 -2
	L -6 -3
	L -6 -4
	L -7 -4
	L -8 -4
	L -8 -5
	L -7 -5
	L -6 -5
	L -6 -6
	L -5 -6
	L -5 -7
	L -5 -8
	L -4 -8
	L -4 -7
	L -4 -6
	L -3 -6
	L -3 -5
	L -2 -5
	L -1 -5
	L -1 -4
	L -2 -4
	L -3 -4
	L -3 -3
	L -3 -2
	L -2 -2
	L -1 -2
	L -1 -1
	L -2 -1
	L -3 -1
	L -3 -8.077e-08
	L -2 -8.616e-08
	L -2 -1
	L -2 -2
	L -1 -2
	L -1 -1
	L -1 -9.154e-08
	L -9.692e-08 -9.692e-08
"/>
</svg>
