<svg version="1.1" baseProfile="full" xmlns="http://www.w3.org/2000/svg"
width="1024" height="891.1"
viewBox="-32.18 -55 64.35 56"
>
<rect x="-32.18" y="-55" width="100%" height="100%" fill="white" />
<path stroke="green" stroke-width="0.04" stroke-linecap="round" fill="none"
transform="scale(1 -1)"
d="	M 0 0
	L 0.866 0.5
	L 1.732 3.109e-09
	L 1.732 1
	L 2.598 1.5
	L 3.464 1
	L 3.464 6.218e-09
	L 4.33 0.5
	L 5.196 9.327e-09
	L 5.196 1
	L 6.062 1.5
	L 5.196 2
	L 5.196 3
	L 6.062 3.5
	L 6.928 3
	L 6.928 4
	L 7.794 4.5
	L 8.66 4
	L 8.66 3
	L 9.526 3.5
	L 10.39 3
	L 10.39 2
	L 9.526 1.5
	L 10.39 1
	L 10.39 1.865e-08
	L 11.26 0.5
	L 12.12 2.176e-08
	L 12.12 1
	L 12.99 1.5
	L 13.86 1
	L 13.86 2.487e-08
	L 14.72 0.5
	L 15.59 2.798e-08
	L 15.59 1
	L 16.45 1.5
	L 15.59 2
	L 15.59 3
	L 16.45 3.5
	L 17.32 3
	L 17.32 4
	L 18.19 4.5
	L 17.32 5
	L 17.32 6
	L 16.45 5.5
	L 15.59 6
	L 15.59 7
	L 16.45 7.5
	L 15.59 8
	L 15.59 9
	L 16.45 9.5
	L 17.32 9
	L 17.32 10
	L 18.19 10.5
	L 19.05 10
	L 19.05 9
	L 19.92 9.5
	L 20.78 9
	L 20.78 10
	L 21.65 10.5
	L 20.78 11
	L 20.78 12
	L 21.65 12.5
	L 22.52 12
	L 22.52 13
	L 23.38 13.5
	L 23.38 14.5
	L 24.25 15
	L 23.38 15.5
	L 23.38 16.5
	L 24.25 17
	L 25.11 16.5
	L 25.11 17.5
	L 25.98 18
	L 25.11 18.5
	L 25.11 19.5
	L 24.25 19
	L 23.38 19.5
	L 23.38 20.5
	L 24.25 21
	L 23.38 21.5
	L 23.38 22.5
	L 24.25 23
	L 25.11 22.5
	L 25.11 23.5
	L 25.98 24
	L 26.85 23.5
	L 26.85 22.5
	L 27.71 23
	L 28.58 22.5
	L 28.58 23.5
	L 29.44 24
	L 28.58 24.5
	L 28.58 25.5
	L 29.44 26
	L 30.31 25.5
	L 30.31 26.5
	L 31.18 27
	L 30.31 27.5
	L 30.31 28.5
	L 29.44 28
	L 28.58 28.5
	L 28.58 29.5
	L 29.44 30
	L 28.58 30.5
	L 28.58 31.5
	L 27.71 31
	L 26.85 31.5
	L 26.85 30.5
	L 25.98 30
	L 25.11 30.5
	L 25.11 31.5
	L 24.25 31
	L 23.38 31.5
	L 23.38 32.5
	L 24.25 33
	L 23.38 33.5
	L 23.38 34.5
	L 24.25 35
	L 25.11 34.5
	L 25.11 35.5
	L 25.98 36
	L 25.11 36.5
	L 25.11 37.5
	L 24.25 37
	L 23.38 37.5
	L 23.38 38.5
	L 24.25 39
	L 23.38 39.5
	L 23.38 40.5
	L 22.52 41
	L 22.52 42
	L 21.65 41.5
	L 20.78 42
	L 20.78 43
	L 21.65 43.5
	L 20.78 44
	L 20.78 45
	L 19.92 44.5
	L 19.05 45
	L 19.05 44
	L 18.19 43.5
	L 17.32 44
	L 17.32 45
	L 16.45 44.5
	L 15.59 45
	L 15.59 46
	L 16.45 46.5
	L 15.59 47
	L 15.59 48
	L 16.45 48.5
	L 17.32 48
	L 17.32 49
	L 18.19 49.5
	L 17.32 50
	L 17.32 51
	L 16.45 50.5
	L 15.59 51
	L 15.59 52
	L 16.45 52.5
	L 15.59 53
	L 15.59 54
	L 14.72 53.5
	L 13.86 54
	L 13.86 53
	L 12.99 52.5
	L 12.12 53
	L 12.12 54
	L 11.26 53.5
	L 10.39 54
	L 10.39 53
	L 9.526 52.5
	L 10.39 52
	L 10.39 51
	L 9.526 50.5
	L 8.66 51
	L 8.66 50
	L 7.794 49.5
	L 6.928 50
	L 6.928 51
	L 6.062 50.5
	L 5.196 51
	L 5.196 52
	L 6.062 52.5
	L 5.196 53
	L 5.196 54
	L 4.33 53.5
	L 3.464 54
	L 3.464 53
	L 2.598 52.5
	L 1.732 53
	L 1.732 54
	L 0.866 53.5
	L 1.665e-15 54
	L -0.866 53.5
	L -1.732 54
	L -1.732 53
	L -2.598 52.5
	L -3.464 53
	L -3.464 54
	L -4.33 53.5
	L -5.196 54
	L -5.196 53
	L -6.062 52.5
	L -5.196 52
	L -5.196 51
	L -6.062 50.5
	L -6.928 51
	L -6.928 50
	L -7.794 49.5
	L -8.66 50
	L -8.66 51
	L -9.526 50.5
	L -10.39 51
	L -10.39 52
	L -9.526 52.5
	L -10.39 53
	L -10.39 54
	L -11.26 53.5
	L -12.12 54
	L -12.12 53
	L -12.99 52.5
	L -13.86 53
	L -13.86 54
	L -14.72 53.5
	L -15.59 54
	L -15.59 53
	L -16.45 52.5
	L -15.59 52
	L -15.59 51
	L -16.45 50.5
	L -17.32 51
	L -17.32 50
	L -18.19 49.5
	L -17.32 49
	L -17.32 48
	L -16.45 48.5
	L -15.59 48
	L -15.59 47
	L -16.45 46.5
	L -15.59 46
	L -15.59 45
	L -16.45 44.5
	L -17.32 45
	L -17.32 44
	L -18.19 43.5
	L -19.05 44
	L -19.05 45
	L -19.92 44.5
	L -20.78 45
	L -20.78 44
	L -21.65 43.5
	L -20.78 43
	L -20.78 42
	L -21.65 41.5
	L -22.52 42
	L -22.52 41
	L -23.38 40.5
	L -23.38 39.5
	L -24.25 39
	L -23.38 38.5
	L -23.38 37.5
	L -24.25 37
	L -25.11 37.5
	L -25.11 36.5
	L -25.98 36
	L -25.11 35.5
	L -25.11 34.5
	L -24.25 35
	L -23.38 34.5
	L -23.38 33.5
	L -24.25 33
	L -23.38 32.5
	L -23.38 31.5
	L -24.25 31
	L -25.11 31.5
	L -25.11 30.5
	L -25.98 30
	L -26.85 30.5
	L -26.85 31.5
	L -27.71 31
	L -28.58 31.5
	L -28.58 30.5
	L -29.44 30
	L -28.58 29.5
	L -28.58 28.5
	L -29.44 28
	L -30.31 28.5
	L -30.31 27.5
	L -31.18 27
	L -30.31 26.5
	L -30.31 25.5
	L -29.44 26
	L -28.58 25.5
	L -28.58 24.5
	L -29.44 24
	L -28.58 23.5
	L -28.58 22.5
	L -27.71 23
	L -26.85 22.5
	L -26.85 23.5
	L -25.98 24
	L -25.11 23.5
	L -25.11 22.5
	L -24.25 23
	L -23.38 22.5
	L -23.38 21.5
	L -24.25 21
	L -23.38 20.5
	L -23.38 19.5
	L -24.25 19
	L -25.11 19.5
	L -25.11 18.5
	L -25.98 18
	L -25.11 17.5
	L -25.11 16.5
	L -24.25 17
	L -23.38 16.5
	L -23.38 15.5
	L -24.25 15
	L -23.38 14.5
	L -23.38 13.5
	L -22.52 13
	L -22.52 12
	L -21.65 12.5
	L -20.78 12
	L -20.78 11
	L -21.65 10.5
	L -20.78 10
	L -20.78 9
	L -19.92 9.5
	L -19.05 9
	L -19.05 10
	L -18.19 10.5
	L -17.32 10
	L -17.32 9
	L -16.45 9.5
	L -15.59 9
	L -15.59 8
	L -16.45 7.5
	L -15.59 7
	L -15.59 6
	L -16.45 5.5
	L -17.32 6
	L -17.32 5
	L -18.19 4.5
	L -17.32 4
	L -17.32 3
	L -16.45 3.5
	L -15.59 3
	L -15.59 2
	L -16.45 1.5
	L -15.59 1
	L -15.59 8.394e-08
	L -14.72 0.5
	L -13.86 7.461e-08
	L -13.86 1
	L -12.99 1.5
	L -12.12 1
	L -12.12 6.529e-08
	L -11.26 0.5
	L -10.39 5.596e-08
	L -10.39 1
	L -9.526 1.5
	L -10.39 2
	L -10.39 3
	L -9.526 3.5
	L -8.66 3
	L -8.66 4
	L -7.794 4.5
	L -6.928 4
	L -6.928 3
	L -6.062 3.5
	L -5.196 3
	L -5.196 2
	L -6.062 1.5
	L -5.196 1
	L -5.196 2.798e-08
	L -4.33 0.5
	L -3.464 1.865e-08
	L -3.464 1
	L -2.598 1.5
	L -1.732 1
	L -1.732 9.327e-09
	L -0.866 0.5
	L -1.938e-07 -4.197e-14
"/>
</svg>
