<svg version="1.1" baseProfile="full" xmlns="http://www.w3.org/2000/svg"
width="1024" height="920.6"
viewBox="-19.19 -33.5 38.37 34.5"
>
<rect x="-19.19" y="-33.5" width="100%" height="100%" fill="white" />
<path stroke="green" stroke-width="0.04" stroke-linecap="round" fill="none"
transform="scale(1 -1)"
d="	M 0 0
	L 0 1
	L 0 2
	L 0 3
	L 0 4
	L 0 5
	L 0 6
	L 0 7
	L 0 8
	L 0 9
	L 0 10
	L 0 11
	L 0 12
	L 0 13
	L 0 14
	L 0 15
	L 0 16
	L 0 17
	L 0 18
	L 0 19
	L 0 20
	L 0 21
	L 0 22
	L 0 23
	L 0 24
	L 0 25
	L 0 26
	L 0 27
	L 0 28
	L 0 29
	L 0 30
	L 0 31
	L 0 32
	L -0.866 31.5
	L -1.732 31
	L -2.598 30.5
	L -3.464 30
	L -4.33 29.5
	L -5.196 29
	L -6.062 28.5
	L -6.928 28
	L -7.794 27.5
	L -8.66 27
	L -9.526 26.5
	L -10.39 26
	L -11.26 25.5
	L -12.12 25
	L -12.99 24.5
	L -13.86 24
	L -12.99 23.5
	L -12.12 23
	L -11.26 22.5
	L -10.39 22
	L -9.526 21.5
	L -8.66 21
	L -7.794 20.5
	L -6.928 20
	L -6.928 21
	L -6.928 22
	L -6.928 23
	L -6.928 24
	L -7.794 23.5
	L -8.66 23
	L -7.794 22.5
	L -7.794 23.5
	M -7.794 22.5
	L -8.66 22
	M -8.66 23
	L -8.66 24
	L -9.526 23.5
	M -8.66 24
	L -7.794 23.5
	M -6.928 24
	L -6.062 23.5
	L -5.196 23
	L -5.196 24
	L -6.062 23.5
	M -5.196 24
	L -4.33 23.5
	M -5.196 23
	L -6.062 22.5
	L -5.196 22
	M -6.062 22.5
	L -6.062 23.5
	M -6.928 20
	L -7.794 19.5
	L -8.66 19
	L -9.526 18.5
	L -10.39 18
	L -9.526 17.5
	L -8.66 17
	L -8.66 18
	L -9.526 17.5
	M -8.66 18
	L -7.794 17.5
	M -8.66 17
	L -9.526 16.5
	L -8.66 16
	M -9.526 16.5
	L -9.526 17.5
	M -10.39 18
	L -10.39 19
	L -10.39 20
	L -11.26 19.5
	L -10.39 19
	M -11.26 19.5
	L -11.26 20.5
	M -10.39 20
	L -9.526 19.5
	L -9.526 20.5
	M -9.526 19.5
	L -10.39 19
	M -13.86 24
	L -13.86 25
	L -13.86 26
	L -13.86 27
	L -13.86 28
	L -13.86 29
	L -13.86 30
	L -13.86 31
	L -13.86 32
	L -14.72 31.5
	L -15.59 31
	L -16.45 30.5
	L -17.32 30
	L -16.45 29.5
	L -15.59 29
	L -15.59 30
	L -16.45 29.5
	M -15.59 30
	L -14.72 29.5
	M -15.59 29
	L -16.45 28.5
	L -15.59 28
	M -16.45 28.5
	L -16.45 29.5
	M -17.32 30
	L -17.32 31
	L -17.32 32
	L -18.19 31.5
	L -17.32 31
	M -18.19 31.5
	L -18.19 32.5
	M -17.32 32
	L -16.45 31.5
	L -16.45 32.5
	M -16.45 31.5
	L -17.32 31
	M -13.86 32
	L -12.99 31.5
	L -12.12 31
	L -11.26 30.5
	L -10.39 30
	L -10.39 31
	L -10.39 32
	L -11.26 31.5
	L -10.39 31
	M -11.26 31.5
	L -11.26 32.5
	M -10.39 32
	L -9.526 31.5
	L -9.526 32.5
	M -9.526 31.5
	L -10.39 31
	M -10.39 30
	L -11.26 29.5
	L -12.12 29
	L -11.26 28.5
	L -11.26 29.5
	M -11.26 28.5
	L -12.12 28
	M -12.12 29
	L -12.12 30
	L -12.99 29.5
	M -12.12 30
	L -11.26 29.5
	M 0 32
	L 0.866 31.5
	L 1.732 31
	L 2.598 30.5
	L 3.464 30
	L 4.33 29.5
	L 5.196 29
	L 6.062 28.5
	L 6.928 28
	L 7.794 27.5
	L 8.66 27
	L 9.526 26.5
	L 10.39 26
	L 11.26 25.5
	L 12.12 25
	L 12.99 24.5
	L 13.86 24
	L 13.86 25
	L 13.86 26
	L 13.86 27
	L 13.86 28
	L 13.86 29
	L 13.86 30
	L 13.86 31
	L 13.86 32
	L 12.99 31.5
	L 12.12 31
	L 11.26 30.5
	L 10.39 30
	L 11.26 29.5
	L 12.12 29
	L 12.12 30
	L 11.26 29.5
	M 12.12 30
	L 12.99 29.5
	M 12.12 29
	L 11.26 28.5
	L 12.12 28
	M 11.26 28.5
	L 11.26 29.5
	M 10.39 30
	L 10.39 31
	L 10.39 32
	L 9.526 31.5
	L 10.39 31
	M 9.526 31.5
	L 9.526 32.5
	M 10.39 32
	L 11.26 31.5
	L 11.26 32.5
	M 11.26 31.5
	L 10.39 31
	M 13.86 32
	L 14.72 31.5
	L 15.59 31
	L 16.45 30.5
	L 17.32 30
	L 17.32 31
	L 17.32 32
	L 16.45 31.5
	L 17.32 31
	M 16.45 31.5
	L 16.45 32.5
	M 17.32 32
	L 18.19 31.5
	L 18.19 32.5
	M 18.19 31.5
	L 17.32 31
	M 17.32 30
	L 16.45 29.5
	L 15.59 29
	L 16.45 28.5
	L 16.45 29.5
	M 16.45 28.5
	L 15.59 28
	M 15.59 29
	L 15.59 30
	L 14.72 29.5
	M 15.59 30
	L 16.45 29.5
	M 13.86 24
	L 12.99 23.5
	L 12.12 23
	L 11.26 22.5
	L 10.39 22
	L 9.526 21.5
	L 8.66 21
	L 7.794 20.5
	L 6.928 20
	L 7.794 19.5
	L 8.66 19
	L 9.526 18.5
	L 10.39 18
	L 10.39 19
	L 10.39 20
	L 9.526 19.5
	L 10.39 19
	M 9.526 19.5
	L 9.526 20.5
	M 10.39 20
	L 11.26 19.5
	L 11.26 20.5
	M 11.26 19.5
	L 10.39 19
	M 10.39 18
	L 9.526 17.5
	L 8.66 17
	L 9.526 16.5
	L 9.526 17.5
	M 9.526 16.5
	L 8.66 16
	M 8.66 17
	L 8.66 18
	L 7.794 17.5
	M 8.66 18
	L 9.526 17.5
	M 6.928 20
	L 6.928 21
	L 6.928 22
	L 6.928 23
	L 6.928 24
	L 6.062 23.5
	L 5.196 23
	L 6.062 22.5
	L 6.062 23.5
	M 6.062 22.5
	L 5.196 22
	M 5.196 23
	L 5.196 24
	L 4.33 23.5
	M 5.196 24
	L 6.062 23.5
	M 6.928 24
	L 7.794 23.5
	L 8.66 23
	L 8.66 24
	L 7.794 23.5
	M 8.66 24
	L 9.526 23.5
	M 8.66 23
	L 7.794 22.5
	L 8.66 22
	M 7.794 22.5
	L 7.794 23.5
"/>
</svg>
