<svg version="1.1" baseProfile="full" xmlns="http://www.w3.org/2000/svg"
width="559.5" height="1024"
viewBox="-4.464 -9 5.464 10"
>
<rect x="-4.464" y="-9" width="100%" height="100%" fill="white" />
<path stroke="green" stroke-width="0.04" stroke-linecap="round" fill="none"
transform="scale(1 -1)"
d="	M 0 0
	L 0 1
	L -0.866 1.5
	M 0 1
	L 0 2
	L -0.866 2.5
	L -1.732 2
	M -0.866 2.5
	L -1.732 3
	M 0 2
	L 0 3
	L -0.866 3.5
	M 0 3
	L 0 4
	L -0.866 4.5
	L -1.732 4
	M -0.866 4.5
	L -1.732 5
	L -2.598 4.5
	L -2.598 3.5
	M -2.598 4.5
	L -3.464 4
	M -1.732 5
	L -2.598 5.5
	L -3.464 5
	M -2.598 5.5
	L -3.464 6
	M 0 4
	L 0 5
	L -0.866 5.5
	M 0 5
	L 0 6
	L -0.866 6.5
	L -1.732 6
	M -0.866 6.5
	L -1.732 7
	M 0 6
	L 0 7
	L -0.866 7.5
	M 0 7
	L 0 8
"/>
</svg>
