<svg version="1.1" baseProfile="full" xmlns="http://www.w3.org/2000/svg"
width="1024" height="1012"
viewBox="-25.98 -16.28 40.36 39.88"
>
<rect x="-25.98" y="-16.28" width="100%" height="100%" fill="white" />
<path stroke="green" stroke-width="0.04" stroke-linecap="round" fill="none"
transform="scale(1 -1)"
d="	M 0 0
	L 0 1
	L -0.3827 1.924
	L -1.09 2.631
	L -2.014 3.014
	L -3.014 3.014
	L -3.938 3.396
	L -4.938 3.396
	L -5.861 3.014
	L -6.861 3.014
	L -7.785 3.396
	L -8.785 3.396
	L -9.709 3.779
	L -10.42 4.486
	L -10.8 5.41
	L -10.8 6.41
	L -11.18 7.334
	L -11.18 8.334
	L -10.8 9.258
	L -10.09 9.965
	L -9.168 10.35
	L -8.168 10.35
	L -7.244 10.73
	L -6.244 10.73
	L -5.32 11.11
	L -4.613 11.82
	L -3.689 12.2
	L -2.982 12.91
	L -2.058 13.29
	L -1.058 13.29
	L -0.1344 12.91
	L 0.8656 12.91
	L 1.789 12.53
	M 0 0
	L 1 1.795e-09
	L 1.924 0.3827
	L 2.924 0.3827
	L 3.848 6.906e-09
	L 4.848 8.701e-09
	L 5.772 0.3827
	L 6.479 1.09
	L 6.861 2.014
	L 6.861 3.014
	L 7.244 3.938
	L 7.244 4.938
	L 7.627 5.861
	L 7.627 6.861
	L 7.244 7.785
	L 7.244 8.785
	L 7.627 9.709
	L 8.334 10.42
	L 8.717 11.34
	L 8.717 12.34
	L 8.334 13.26
	L 7.627 13.97
	L 6.703 14.35
	L 5.703 14.35
	L 4.779 14.74
	L 3.779 14.74
	L 2.855 14.35
	L 2.148 13.65
	L 1.224 13.26
	L 0.2242 13.26
	L -0.6997 13.65
	L -1.407 14.35
	L -1.789 15.28
	M 0 0
	L -1 1.795e-09
	L -1.924 0.3827
	L -2.924 0.3827
	L -3.848 0.7654
	L -4.555 1.472
	L -5.479 1.855
	L -6.479 1.855
	L -7.403 1.472
	L -8.403 1.472
	L -9.327 1.09
	L -10.03 0.3827
	L -10.96 1.967e-08
	L -11.66 -0.7071
	L -12.05 -1.631
	L -12.75 -2.338
	L -13.68 -2.721
	L -14.39 -3.428
	L -15.31 -3.811
	L -16.31 -3.811
	L -17.23 -3.428
	L -17.94 -2.721
	L -18.32 -1.797
	L -19.03 -1.09
	L -19.41 -0.1659
	L -19.41 0.8341
	L -19.8 1.758
	L -20.5 2.465
	L -21.43 2.848
	L -22.13 3.555
	L -23.06 3.938
	L -24.06 3.938
	L -24.98 3.555
	M 0 0
	L -3.59e-09 -1
	L -0.3827 -1.924
	L -0.3827 -2.924
	L -1.381e-08 -3.848
	L -1.74e-08 -4.848
	L 0.3827 -5.772
	L 0.3827 -6.772
	L 0.7654 -7.696
	L 0.7654 -8.696
	L 1.148 -9.619
	L 1.855 -10.33
	L 2.779 -10.71
	L 3.486 -11.42
	L 4.41 -11.8
	L 5.41 -11.8
	L 6.334 -12.18
	L 7.041 -12.89
	L 7.424 -13.81
	L 7.424 -14.81
	L 7.041 -15.74
	L 7.041 -16.74
	L 7.424 -17.66
	L 7.424 -18.66
	L 7.806 -19.58
	L 7.806 -20.58
	L 8.189 -21.51
	L 8.896 -22.22
	L 9.82 -22.6
	L 10.82 -22.6
	L 11.74 -22.22
	L 12.45 -21.51
	L 13.37 -21.13
"/>
</svg>
