<svg version="1.1" baseProfile="full" xmlns="http://www.w3.org/2000/svg"
width="172.5" height="1024"
viewBox="-9.705 -107.6 18.3 108.6"
>
<rect x="-9.705" y="-107.6" width="100%" height="100%" fill="white" />
<path stroke="green" stroke-width="0.04" stroke-linecap="round" fill="none"
transform="scale(1 -1)"
d="	M 0 0
	L 0 1
	L -0.2079 1.978
	M 0 1
	L 0 2
	L -0.2079 2.978
	L -0.2079 3.978
	M -0.2079 2.978
	L -0.4158 3.956
	M 0 2
	L 0 3
	L 0.2079 3.978
	M 0 3
	L 0 4
	L 0.2079 4.978
	L 0.2079 5.978
	M 0.2079 4.978
	L 0.4158 5.956
	M 0 4
	L 0 5
	L 0.2079 5.978
	M 0 5
	L 0 6
	L 0.2079 6.978
	L 0.2079 7.978
	M 0.2079 6.978
	L 0.4158 7.956
	L 0.8226 8.87
	M 0.4158 7.956
	L 0.6237 8.934
	L 0.6237 9.934
	L 0.8316 10.91
	M 0.6237 9.934
	L 0.6237 10.93
	M 0.6237 8.934
	L 0.8316 9.913
	L 0.8316 10.91
	M 0.8316 9.913
	L 1.04 10.89
	M 0 6
	L 0 7
	L 0.2079 7.978
	M 0 7
	L 0 8
	L -0.2079 8.978
	L -0.2079 9.978
	M -0.2079 8.978
	L -0.4158 9.956
	M 0 8
	L 0 9
	L -0.2079 9.978
	M 0 9
	L 0 10
	L 0.2079 10.98
	M 0 10
	L 0 11
	L -0.2079 11.98
	L -0.6146 12.89
	M -0.2079 11.98
	L -0.4158 12.96
	L -0.4158 13.96
	M -0.4158 12.96
	L -0.6237 13.93
	L -0.6237 14.93
	L -0.8316 15.91
	M -0.6237 14.93
	L -0.6237 15.93
	L -0.4158 16.91
	M -0.6237 15.93
	L -0.6237 16.93
	M -0.6237 13.93
	L -0.8316 14.91
	L -0.8316 15.91
	M -0.8316 14.91
	L -1.04 15.89
	L -1.446 16.8
	L -1.654 17.78
	M -1.446 16.8
	L -1.853 17.72
	L -2.061 18.7
	L -2.468 19.61
	M -2.061 18.7
	L -2.269 19.67
	M -1.853 17.72
	L -2.26 18.63
	L -2.848 19.44
	M -2.26 18.63
	L -2.667 19.54
	M -1.04 15.89
	L -1.247 16.87
	L -1.247 17.87
	M -1.247 16.87
	L -1.455 17.85
	L -1.862 18.76
	L -2.07 19.74
	M -1.862 18.76
	L -2.269 19.67
	M -1.455 17.85
	L -1.663 18.83
	L -2.07 19.74
	M -1.663 18.83
	L -1.871 19.8
	L -1.871 20.8
	M -1.871 19.8
	L -2.079 20.78
	M 0 11
	L 0 12
	L 0.2079 12.98
	M 0 12
	L 0 13
	L -0.2079 13.98
	L -0.2079 14.98
	M -0.2079 13.98
	L -0.4158 14.96
	M 0 13
	L 0 14
	L -0.2079 14.98
	M 0 14
	L 0 15
	L -0.2079 15.98
	L -0.2079 16.98
	M -0.2079 15.98
	L -0.4158 16.96
	L -0.4158 17.96
	L -0.6237 18.93
	M -0.4158 17.96
	L -0.4158 18.96
	L -0.2079 19.93
	M -0.4158 18.96
	L -0.4158 19.96
	M -0.4158 16.96
	L -0.6237 17.93
	L -0.6237 18.93
	M -0.6237 17.93
	L -0.8316 18.91
	M 0 15
	L 0 16
	L -0.2079 16.98
	M 0 16
	L 0 17
	L 0.2079 17.98
	M 0 17
	L 0 18
	L -0.2079 18.98
	L -0.6146 19.89
	M -0.2079 18.98
	L -0.4158 19.96
	L -0.4158 20.96
	M -0.4158 19.96
	L -0.6237 20.93
	M 0 18
	L 0 19
	L -0.2079 19.98
	M 0 19
	L 0 20
	L 0.2079 20.98
	L 0.2079 21.98
	M 0.2079 20.98
	L 0.4158 21.96
	M 0 20
	L 0 21
	L -0.2079 21.98
	M 0 21
	L 0 22
	L 0.2079 22.98
	M 0 22
	L 0 23
	L 0.2079 23.98
	L 0.6146 24.89
	M 0.2079 23.98
	L 0.4158 24.96
	L 0.4158 25.96
	L 0.6237 26.93
	M 0.4158 25.96
	L 0.4158 26.96
	M 0.4158 24.96
	L 0.6237 25.93
	L 0.6237 26.93
	M 0.6237 25.93
	L 0.8316 26.91
	L 1.238 27.83
	M 0.8316 26.91
	L 1.04 27.89
	L 1.446 28.8
	L 1.654 29.78
	M 1.446 28.8
	L 1.853 29.72
	M 1.04 27.89
	L 1.247 28.87
	L 1.247 29.87
	M 1.247 28.87
	L 1.455 29.85
	M 0 23
	L 0 24
	L 0.2079 24.98
	M 0 24
	L 0 25
	L -0.2079 25.98
	L -0.2079 26.98
	M -0.2079 25.98
	L -0.4158 26.96
	M 0 25
	L 0 26
	L -0.2079 26.98
	M 0 26
	L 0 27
	L 0.2079 27.98
	M 0 27
	L 0 28
	L 0.2079 28.98
	L 0.2079 29.98
	M 0.2079 28.98
	L 0.4158 29.96
	L 0.4158 30.96
	L 0.6237 31.93
	M 0.4158 30.96
	L 0.4158 31.96
	M 0.4158 29.96
	L 0.6237 30.93
	L 0.6237 31.93
	M 0.6237 30.93
	L 0.8316 31.91
	L 1.238 32.83
	M 0.8316 31.91
	L 1.04 32.89
	L 1.446 33.8
	L 1.654 34.78
	M 1.446 33.8
	L 1.853 34.72
	M 1.04 32.89
	L 1.247 33.87
	L 1.654 34.78
	M 1.247 33.87
	L 1.455 34.85
	L 1.455 35.85
	L 1.663 36.83
	M 1.455 35.85
	L 1.455 36.85
	L 1.247 37.83
	L 0.8407 38.74
	M 1.247 37.83
	L 1.04 38.8
	M 1.455 36.85
	L 1.455 37.85
	L 1.663 38.83
	M 1.455 37.85
	L 1.455 38.85
	M 1.455 34.85
	L 1.663 35.83
	L 1.663 36.83
	M 1.663 35.83
	L 1.871 36.8
	L 2.278 37.72
	M 1.871 36.8
	L 2.079 37.78
	L 2.079 38.78
	L 2.287 39.76
	M 2.079 38.78
	L 2.079 39.78
	M 2.079 37.78
	L 2.287 38.76
	L 2.694 39.67
	M 2.287 38.76
	L 2.495 39.74
	L 2.902 40.65
	L 3.11 41.63
	M 2.902 40.65
	L 3.308 41.56
	L 3.896 42.37
	M 3.308 41.56
	L 3.715 42.48
	M 2.495 39.74
	L 2.703 40.72
	L 3.11 41.63
	M 2.703 40.72
	L 2.911 41.69
	M 0 28
	L 0 29
	L -0.2079 29.98
	M 0 29
	L 0 30
	L 0.2079 30.98
	M 0 30
	L 0 31
	L -0.2079 31.98
	L -0.2079 32.98
	M -0.2079 31.98
	L -0.4158 32.96
	M 0 31
	L 0 32
	L -0.2079 32.98
	M 0 32
	L 0 33
	L 0.2079 33.98
	M 0 33
	L 0 34
	L 0.2079 34.98
	L 0.2079 35.98
	M 0.2079 34.98
	L 0.4158 35.96
	L 0.8226 36.87
	L 1.03 37.85
	M 0.8226 36.87
	L 1.229 37.78
	M 0.4158 35.96
	L 0.6237 36.93
	L 0.6237 37.93
	M 0.6237 36.93
	L 0.8316 37.91
	L 1.238 38.83
	M 0.8316 37.91
	L 1.04 38.89
	M 0 34
	L 0 35
	L 0.2079 35.98
	M 0 35
	L 0 36
	L 0.2079 36.98
	L 0.2079 37.98
	M 0.2079 36.98
	L 0.4158 37.96
	L 0.8226 38.87
	M 0.4158 37.96
	L 0.6237 38.93
	M 0 36
	L 0 37
	L 0.2079 37.98
	M 0 37
	L 0 38
	L -0.2079 38.98
	L -0.6146 39.89
	M -0.2079 38.98
	L -0.4158 39.96
	L -0.8226 40.87
	L -1.03 41.85
	M -0.8226 40.87
	L -1.229 41.78
	M -0.4158 39.96
	L -0.6237 40.93
	L -1.03 41.85
	M -0.6237 40.93
	L -0.8316 41.91
	L -1.238 42.83
	L -1.826 43.64
	M -1.238 42.83
	L -1.645 43.74
	L -1.853 44.72
	M -1.645 43.74
	L -2.052 44.65
	L -2.64 45.46
	L -3.383 46.13
	M -2.64 45.46
	L -3.227 46.27
	L -3.634 47.18
	M -3.227 46.27
	L -3.815 47.08
	M -2.052 44.65
	L -2.459 45.57
	L -2.667 46.54
	M -2.459 45.57
	L -2.865 46.48
	L -3.073 47.46
	L -3.48 48.37
	M -3.073 47.46
	L -3.281 48.44
	M -2.865 46.48
	L -3.272 47.39
	L -3.86 48.2
	M -3.272 47.39
	L -3.679 48.31
	L -3.887 49.29
	M -3.679 48.31
	L -4.086 49.22
	M -0.8316 41.91
	L -1.04 42.89
	L -1.04 43.89
	M -1.04 42.89
	L -1.247 43.87
	L -1.654 44.78
	L -2.242 45.59
	M -1.654 44.78
	L -2.061 45.7
	M -1.247 43.87
	L -1.455 44.85
	L -1.455 45.85
	M -1.455 44.85
	L -1.663 45.83
	L -1.663 46.83
	L -1.871 47.8
	M -1.663 46.83
	L -1.663 47.83
	L -1.455 48.8
	M -1.663 47.83
	L -1.663 48.83
	M -1.663 45.83
	L -1.871 46.8
	L -1.871 47.8
	M -1.871 46.8
	L -2.079 47.78
	L -2.486 48.7
	L -2.694 49.67
	M -2.486 48.7
	L -2.893 49.61
	L -3.101 50.59
	L -3.101 51.59
	M -3.101 50.59
	L -3.308 51.56
	M -2.893 49.61
	L -3.299 50.52
	L -3.887 51.33
	M -3.299 50.52
	L -3.706 51.44
	L -3.914 52.41
	M -3.706 51.44
	L -4.113 52.35
	L -4.321 53.33
	L -4.727 54.24
	M -4.321 53.33
	L -4.529 54.31
	L -4.529 55.31
	M -4.529 54.31
	L -4.737 55.28
	L -5.143 56.2
	L -5.731 57.01
	M -5.143 56.2
	L -5.55 57.11
	L -5.758 58.09
	M -5.55 57.11
	L -5.957 58.02
	M -4.737 55.28
	L -4.944 56.26
	L -5.351 57.18
	M -4.944 56.26
	L -5.152 57.24
	M -4.113 52.35
	L -4.52 53.26
	L -5.107 54.07
	M -4.52 53.26
	L -4.926 54.18
	L -5.134 55.15
	M -4.926 54.18
	L -5.333 55.09
	L -5.541 56.07
	L -5.948 56.98
	M -5.541 56.07
	L -5.749 57.05
	M -5.333 55.09
	L -5.74 56
	L -6.328 56.81
	M -5.74 56
	L -6.146 56.92
	M -2.079 47.78
	L -2.287 48.76
	L -2.694 49.67
	M -2.287 48.76
	L -2.495 49.74
	L -2.495 50.74
	M -2.495 49.74
	L -2.703 50.72
	L -3.11 51.63
	L -3.318 52.61
	M -3.11 51.63
	L -3.516 52.54
	M -2.703 50.72
	L -2.911 51.69
	L -3.318 52.61
	M -2.911 51.69
	L -3.119 52.67
	L -3.119 53.67
	M -3.119 52.67
	L -3.327 53.65
	L -3.733 54.56
	L -4.321 55.37
	M -3.733 54.56
	L -4.14 55.48
	L -4.348 56.46
	M -4.14 55.48
	L -4.547 56.39
	L -4.755 57.37
	L -4.755 58.37
	M -4.755 57.37
	L -4.963 58.35
	M -4.547 56.39
	L -4.954 57.3
	L -5.161 58.28
	M -4.954 57.3
	L -5.36 58.22
	M -3.327 53.65
	L -3.534 54.63
	L -3.941 55.54
	M -3.534 54.63
	L -3.742 55.61
	L -3.742 56.61
	M -3.742 55.61
	L -3.95 56.58
	L -3.95 57.58
	L -4.158 58.56
	M -3.95 57.58
	L -3.95 58.58
	L -3.742 59.56
	M -3.95 58.58
	L -3.95 59.58
	M -3.95 56.58
	L -4.158 57.56
	L -4.158 58.56
	M -4.158 57.56
	L -4.366 58.54
	L -4.366 59.54
	L -4.158 60.52
	M -4.366 59.54
	L -4.366 60.54
	L -4.574 61.52
	L -4.981 62.43
	M -4.574 61.52
	L -4.782 62.5
	L -4.782 63.5
	M -4.782 62.5
	L -4.99 63.48
	M -4.366 60.54
	L -4.366 61.54
	L -4.158 62.52
	M -4.366 61.54
	L -4.366 62.54
	L -4.158 63.52
	L -4.158 64.52
	M -4.158 63.52
	L -3.95 64.5
	M -4.366 62.54
	L -4.366 63.54
	L -4.158 64.52
	M -4.366 63.54
	L -4.366 64.54
	M -4.366 58.54
	L -4.574 59.52
	L -4.981 60.43
	M -4.574 59.52
	L -4.782 60.5
	L -4.782 61.5
	M -4.782 60.5
	L -4.99 61.48
	L -5.397 62.39
	L -5.984 63.2
	M -5.397 62.39
	L -5.803 63.3
	L -6.011 64.28
	M -5.803 63.3
	L -6.21 64.22
	M -4.99 61.48
	L -5.198 62.45
	L -5.198 63.45
	M -5.198 62.45
	L -5.406 63.43
	L -5.406 64.43
	L -5.614 65.41
	M -5.406 64.43
	L -5.406 65.43
	L -5.198 66.41
	M -5.406 65.43
	L -5.406 66.43
	M -5.406 63.43
	L -5.614 64.41
	L -5.614 65.41
	M -5.614 64.41
	L -5.822 65.39
	L -5.822 66.39
	L -6.029 67.37
	M -5.822 66.39
	L -5.822 67.39
	L -5.614 68.37
	M -5.822 67.39
	L -5.822 68.39
	L -6.029 69.37
	L -6.436 70.28
	M -6.029 69.37
	L -6.237 70.34
	M -5.822 68.39
	L -5.822 69.39
	L -6.029 70.37
	M -5.822 69.39
	L -5.822 70.39
	L -5.614 71.37
	M -5.822 70.39
	L -5.822 71.39
	L -6.029 72.37
	L -6.436 73.28
	M -6.029 72.37
	L -6.237 73.34
	L -6.237 74.34
	L -6.029 75.32
	M -6.237 74.34
	L -6.237 75.34
	M -6.237 73.34
	L -6.445 74.32
	L -6.445 75.32
	M -6.445 74.32
	L -6.653 75.3
	M -5.822 71.39
	L -5.822 72.39
	L -6.029 73.37
	M -5.822 72.39
	L -5.822 73.39
	L -5.614 74.37
	M -5.822 73.39
	L -5.822 74.39
	L -6.029 75.37
	L -6.436 76.28
	M -6.029 75.37
	L -6.237 76.34
	M -5.822 74.39
	L -5.822 75.39
	L -6.029 76.37
	M -5.822 75.39
	L -5.822 76.39
	L -5.614 77.37
	M -5.822 76.39
	L -5.822 77.39
	L -5.614 78.37
	L -5.207 79.28
	M -5.614 78.37
	L -5.406 79.34
	M -5.822 77.39
	L -5.822 78.39
	L -6.029 79.37
	M -5.822 78.39
	L -5.822 79.39
	L -5.614 80.37
	M -5.822 79.39
	L -5.822 80.39
	M -5.822 65.39
	L -6.029 66.37
	L -6.029 67.37
	M -6.029 66.37
	L -6.237 67.34
	L -6.237 68.34
	L -6.445 69.32
	M -6.237 68.34
	L -6.237 69.34
	M -6.237 67.34
	L -6.445 68.32
	L -6.852 69.24
	M -6.445 68.32
	L -6.653 69.3
	L -6.653 70.3
	M -6.653 69.3
	L -6.861 70.28
	L -6.861 71.28
	L -7.069 72.26
	M -6.861 71.28
	L -6.861 72.28
	L -7.069 73.26
	L -7.476 74.17
	M -7.069 73.26
	L -7.277 74.24
	M -6.861 72.28
	L -6.861 73.28
	L -6.653 74.26
	M -6.861 73.28
	L -6.861 74.28
	M -6.861 70.28
	L -7.069 71.26
	L -7.476 72.17
	M -7.069 71.26
	L -7.277 72.24
	L -7.277 73.24
	M -7.277 72.24
	L -7.485 73.21
	L -7.892 74.13
	L -8.479 74.94
	M -7.892 74.13
	L -8.298 75.04
	L -8.506 76.02
	M -8.298 75.04
	L -8.705 75.95
	M -7.485 73.21
	L -7.693 74.19
	L -8.099 75.11
	M -7.693 74.19
	L -7.901 75.17
	L -7.901 76.17
	L -7.693 77.15
	M -7.901 76.17
	L -7.901 77.17
	M -7.901 75.17
	L -8.109 76.15
	L -8.515 77.06
	M -8.109 76.15
	L -8.316 77.13
	M 0 38
	L 0 39
	L -0.2079 39.98
	M 0 39
	L 0 40
	L 0.2079 40.98
	M 0 40
	L 0 41
	L 0.2079 41.98
	L 0.6146 42.89
	M 0.2079 41.98
	L 0.4158 42.96
	M 0 41
	L 0 42
	L -0.2079 42.98
	M 0 42
	L 0 43
	L 0.2079 43.98
	M 0 43
	L 0 44
	L -0.2079 44.98
	L -0.6146 45.89
	M -0.2079 44.98
	L -0.4158 45.96
	L -0.4158 46.96
	M -0.4158 45.96
	L -0.6237 46.93
	L -1.03 47.85
	L -1.618 48.66
	M -1.03 47.85
	L -1.437 48.76
	M -0.6237 46.93
	L -0.8316 47.91
	L -0.8316 48.91
	M -0.8316 47.91
	L -1.04 48.89
	L -1.04 49.89
	L -1.247 50.87
	M -1.04 49.89
	L -1.04 50.89
	M -1.04 48.89
	L -1.247 49.87
	L -1.247 50.87
	M -1.247 49.87
	L -1.455 50.85
	M 0 44
	L 0 45
	L -0.2079 45.98
	M 0 45
	L 0 46
	L -0.2079 46.98
	L -0.6146 47.89
	M -0.2079 46.98
	L -0.4158 47.96
	L -0.4158 48.96
	M -0.4158 47.96
	L -0.6237 48.93
	M 0 46
	L 0 47
	L -0.2079 47.98
	M 0 47
	L 0 48
	L -0.2079 48.98
	L -0.6146 49.89
	M -0.2079 48.98
	L -0.4158 49.96
	L -0.4158 50.96
	M -0.4158 49.96
	L -0.6237 50.93
	L -1.03 51.85
	L -1.238 52.83
	M -1.03 51.85
	L -1.437 52.76
	M -0.6237 50.93
	L -0.8316 51.91
	L -1.238 52.83
	M -0.8316 51.91
	L -1.04 52.89
	L -1.04 53.89
	L -1.247 54.87
	M -1.04 53.89
	L -1.04 54.89
	L -0.8316 55.87
	M -1.04 54.89
	L -1.04 55.89
	M -1.04 52.89
	L -1.247 53.87
	L -1.654 54.78
	M -1.247 53.87
	L -1.455 54.85
	L -1.862 55.76
	L -2.45 56.57
	M -1.862 55.76
	L -2.269 56.67
	L -2.477 57.65
	M -2.269 56.67
	L -2.676 57.59
	L -3.263 58.4
	L -4.007 59.07
	M -3.263 58.4
	L -3.851 59.21
	L -4.258 60.12
	M -3.851 59.21
	L -4.439 60.01
	M -2.676 57.59
	L -3.082 58.5
	L -3.67 59.31
	M -3.082 58.5
	L -3.489 59.41
	L -3.697 60.39
	M -3.489 59.41
	L -3.896 60.33
	L -4.104 61.31
	L -4.104 62.31
	M -4.104 61.31
	L -4.312 62.28
	M -3.896 60.33
	L -4.303 61.24
	L -4.51 62.22
	M -4.303 61.24
	L -4.709 62.16
	M -1.455 54.85
	L -1.663 55.83
	L -1.663 56.83
	M -1.663 55.83
	L -1.871 56.8
	L -1.871 57.8
	L -2.079 58.78
	M -1.871 57.8
	L -1.871 58.8
	L -1.663 59.78
	M -1.871 58.8
	L -1.871 59.8
	M -1.871 56.8
	L -2.079 57.78
	L -2.486 58.7
	M -2.079 57.78
	L -2.287 58.76
	L -2.287 59.76
	M -2.287 58.76
	L -2.495 59.74
	M 0 48
	L 0 49
	L -0.2079 49.98
	M 0 49
	L 0 50
	L 0.2079 50.98
	M 0 50
	L 0 51
	L 0.2079 51.98
	L 0.2079 52.98
	M 0.2079 51.98
	L 0.4158 52.96
	M 0 51
	L 0 52
	L -0.2079 52.98
	M 0 52
	L 0 53
	L 0.2079 53.98
	M 0 53
	L 0 54
	L -0.2079 54.98
	L -0.6146 55.89
	M -0.2079 54.98
	L -0.4158 55.96
	L -0.4158 56.96
	M -0.4158 55.96
	L -0.6237 56.93
	L -0.6237 57.93
	L -0.4158 58.91
	M -0.6237 57.93
	L -0.6237 58.93
	M -0.6237 56.93
	L -0.8316 57.91
	L -1.238 58.83
	M -0.8316 57.91
	L -1.04 58.89
	M 0 54
	L 0 55
	L -0.2079 55.98
	M 0 55
	L 0 56
	L -0.2079 56.98
	L -0.6146 57.89
	M -0.2079 56.98
	L -0.4158 57.96
	L -0.4158 58.96
	M -0.4158 57.96
	L -0.6237 58.93
	M 0 56
	L 0 57
	L -0.2079 57.98
	M 0 57
	L 0 58
	L 0.2079 58.98
	M 0 58
	L 0 59
	L 0.2079 59.98
	L 0.2079 60.98
	M 0.2079 59.98
	L 0.4158 60.96
	M 0 59
	L 0 60
	L -0.2079 60.98
	M 0 60
	L 0 61
	L 0.2079 61.98
	M 0 61
	L 0 62
	L 0.2079 62.98
	L 0.6146 63.89
	M 0.2079 62.98
	L 0.4158 63.96
	L 0.4158 64.96
	L 0.2079 65.93
	M 0.4158 64.96
	L 0.4158 65.96
	M 0.4158 63.96
	L 0.6237 64.93
	L 0.6237 65.93
	M 0.6237 64.93
	L 0.8316 65.91
	M 0 62
	L 0 63
	L -0.2079 63.98
	M 0 63
	L 0 64
	L 0.2079 64.98
	M 0 64
	L 0 65
	L -0.2079 65.98
	L -0.6146 66.89
	M -0.2079 65.98
	L -0.4158 66.96
	M 0 65
	L 0 66
	L 0.2079 66.98
	M 0 66
	L 0 67
	L 0.2079 67.98
	L 0.2079 68.98
	M 0.2079 67.98
	L 0.4158 68.96
	L 0.4158 69.96
	L 0.2079 70.93
	M 0.4158 69.96
	L 0.4158 70.96
	M 0.4158 68.96
	L 0.6237 69.93
	L 0.6237 70.93
	M 0.6237 69.93
	L 0.8316 70.91
	L 1.238 71.83
	M 0.8316 70.91
	L 1.04 71.89
	L 1.446 72.8
	L 1.654 73.78
	M 1.446 72.8
	L 1.853 73.72
	L 2.441 74.53
	M 1.853 73.72
	L 2.26 74.63
	M 1.04 71.89
	L 1.247 72.87
	L 1.247 73.87
	M 1.247 72.87
	L 1.455 73.85
	L 1.455 74.85
	L 1.663 75.83
	M 1.455 74.85
	L 1.455 75.85
	L 1.247 76.83
	L 1.247 77.83
	M 1.247 76.83
	L 1.04 77.8
	M 1.455 75.85
	L 1.455 76.85
	L 1.247 77.83
	M 1.455 76.85
	L 1.455 77.85
	L 1.663 78.83
	M 1.455 77.85
	L 1.455 78.85
	L 1.663 79.83
	L 2.07 80.74
	M 1.663 79.83
	L 1.871 80.8
	M 1.455 78.85
	L 1.455 79.85
	L 1.663 80.83
	M 1.455 79.85
	L 1.455 80.85
	M 1.455 73.85
	L 1.663 74.83
	L 1.663 75.83
	M 1.663 74.83
	L 1.871 75.8
	L 1.871 76.8
	L 1.663 77.78
	M 1.871 76.8
	L 1.871 77.8
	L 2.079 78.78
	M 1.871 77.8
	L 1.871 78.8
	M 1.871 75.8
	L 2.079 76.78
	L 2.079 77.78
	M 2.079 76.78
	L 2.287 77.76
	L 2.694 78.67
	L 3.282 79.48
	M 2.694 78.67
	L 3.101 79.59
	L 3.688 80.4
	L 4.095 81.31
	M 3.688 80.4
	L 4.276 81.2
	L 5.019 81.87
	M 4.276 81.2
	L 4.864 82.01
	M 3.101 79.59
	L 3.507 80.5
	L 3.715 81.48
	M 3.507 80.5
	L 3.914 81.41
	L 4.502 82.22
	M 3.914 81.41
	L 4.321 82.33
	M 2.287 77.76
	L 2.495 78.74
	L 2.902 79.65
	M 2.495 78.74
	L 2.703 79.72
	L 3.11 80.63
	L 3.318 81.61
	M 3.11 80.63
	L 3.516 81.54
	L 4.104 82.35
	M 3.516 81.54
	L 3.923 82.46
	M 2.703 79.72
	L 2.911 80.69
	L 3.318 81.61
	M 2.911 80.69
	L 3.119 81.67
	M 0 67
	L 0 68
	L -0.2079 68.98
	M 0 68
	L 0 69
	L 0.2079 69.98
	L 0.2079 70.98
	M 0.2079 69.98
	L 0.4158 70.96
	M 0 69
	L 0 70
	L 0.2079 70.98
	M 0 70
	L 0 71
	L -0.2079 71.98
	L -0.6146 72.89
	M -0.2079 71.98
	L -0.4158 72.96
	L -0.4158 73.96
	M -0.4158 72.96
	L -0.6237 73.93
	L -1.03 74.85
	L -1.618 75.66
	M -1.03 74.85
	L -1.437 75.76
	L -1.645 76.74
	M -1.437 75.76
	L -1.844 76.68
	M -0.6237 73.93
	L -0.8316 74.91
	L -0.8316 75.91
	M -0.8316 74.91
	L -1.04 75.89
	L -1.04 76.89
	L -1.247 77.87
	M -1.04 76.89
	L -1.04 77.89
	L -0.8316 78.87
	M -1.04 77.89
	L -1.04 78.89
	M -1.04 75.89
	L -1.247 76.87
	L -1.247 77.87
	M -1.247 76.87
	L -1.455 77.85
	M 0 71
	L 0 72
	L -0.2079 72.98
	M 0 72
	L 0 73
	L -0.2079 73.98
	L -0.6146 74.89
	M -0.2079 73.98
	L -0.4158 74.96
	L -0.4158 75.96
	M -0.4158 74.96
	L -0.6237 75.93
	M 0 73
	L 0 74
	L -0.2079 74.98
	M 0 74
	L 0 75
	L 0.2079 75.98
	L 0.2079 76.98
	M 0.2079 75.98
	L 0.4158 76.96
	L 0.8226 77.87
	M 0.4158 76.96
	L 0.6237 77.93
	M 0 75
	L 0 76
	L 0.2079 76.98
	M 0 76
	L 0 77
	L 0.2079 77.98
	L 0.2079 78.98
	M 0.2079 77.98
	L 0.4158 78.96
	L 0.8226 79.87
	L 1.41 80.68
	M 0.8226 79.87
	L 1.229 80.78
	M 0.4158 78.96
	L 0.6237 79.93
	L 1.03 80.85
	M 0.6237 79.93
	L 0.8316 80.91
	L 1.238 81.83
	L 1.446 82.8
	M 1.238 81.83
	L 1.645 82.74
	L 2.233 83.55
	M 1.645 82.74
	L 2.052 83.65
	L 2.26 84.63
	L 2.26 85.63
	M 2.26 84.63
	L 2.468 85.61
	L 2.874 86.52
	M 2.468 85.61
	L 2.676 86.59
	M 2.052 83.65
	L 2.459 84.57
	L 3.046 85.38
	M 2.459 84.57
	L 2.865 85.48
	M 0.8316 80.91
	L 1.04 81.89
	L 1.04 82.89
	M 1.04 81.89
	L 1.247 82.87
	L 1.654 83.78
	M 1.247 82.87
	L 1.455 83.85
	L 1.455 84.85
	L 1.247 85.83
	M 1.455 84.85
	L 1.455 85.85
	M 1.455 83.85
	L 1.663 84.83
	L 1.663 85.83
	M 1.663 84.83
	L 1.871 85.8
	L 2.278 86.72
	M 1.871 85.8
	L 2.079 86.78
	L 2.486 87.7
	L 2.694 88.67
	M 2.486 87.7
	L 2.893 88.61
	L 3.48 89.42
	M 2.893 88.61
	L 3.299 89.52
	M 2.079 86.78
	L 2.287 87.76
	L 2.287 88.76
	M 2.287 87.76
	L 2.495 88.74
	L 2.902 89.65
	M 2.495 88.74
	L 2.703 89.72
	L 2.703 90.72
	L 2.495 91.69
	M 2.703 90.72
	L 2.703 91.72
	L 2.911 92.69
	M 2.703 91.72
	L 2.703 92.72
	L 2.495 93.69
	L 2.088 94.61
	M 2.495 93.69
	L 2.287 94.67
	L 2.287 95.67
	M 2.287 94.67
	L 2.079 95.65
	M 2.703 92.72
	L 2.703 93.72
	L 2.495 94.69
	M 2.703 93.72
	L 2.703 94.72
	L 2.911 95.69
	M 2.703 94.72
	L 2.703 95.72
	L 2.911 96.69
	L 2.911 97.69
	M 2.911 96.69
	L 3.119 97.67
	L 3.525 98.59
	M 3.119 97.67
	L 3.327 98.65
	L 3.733 99.56
	L 4.321 100.4
	M 3.733 99.56
	L 4.14 100.5
	M 3.327 98.65
	L 3.534 99.63
	L 3.941 100.5
	M 3.534 99.63
	L 3.742 100.6
	M 2.703 95.72
	L 2.703 96.72
	L 2.495 97.69
	M 2.703 96.72
	L 2.703 97.72
	L 2.495 98.69
	L 2.088 99.61
	M 2.495 98.69
	L 2.287 99.67
	L 2.287 100.7
	M 2.287 99.67
	L 2.079 100.7
	M 2.703 97.72
	L 2.703 98.72
	L 2.911 99.69
	M 2.703 98.72
	L 2.703 99.72
	L 2.911 100.7
	L 2.911 101.7
	M 2.911 100.7
	L 3.119 101.7
	L 3.525 102.6
	M 3.119 101.7
	L 3.327 102.7
	M 2.703 99.72
	L 2.703 100.7
	L 2.911 101.7
	M 2.703 100.7
	L 2.703 101.7
	M 2.703 89.72
	L 2.911 90.69
	L 2.911 91.69
	M 2.911 90.69
	L 3.119 91.67
	L 3.119 92.67
	L 3.327 93.65
	M 3.119 92.67
	L 3.119 93.67
	M 3.119 91.67
	L 3.327 92.65
	L 3.327 93.65
	M 3.327 92.65
	L 3.534 93.63
	L 3.941 94.54
	M 3.534 93.63
	L 3.742 94.61
	L 4.149 95.52
	L 4.737 96.33
	M 4.149 95.52
	L 4.556 96.43
	M 3.742 94.61
	L 3.95 95.58
	L 3.95 96.58
	M 3.95 95.58
	L 4.158 96.56
	L 4.565 97.48
	L 4.773 98.45
	M 4.565 97.48
	L 4.972 98.39
	L 5.559 99.2
	M 4.972 98.39
	L 5.378 99.3
	L 5.586 100.3
	L 5.993 101.2
	M 5.586 100.3
	L 5.794 101.3
	M 5.378 99.3
	L 5.785 100.2
	L 6.373 101
	M 5.785 100.2
	L 6.192 101.1
	L 6.78 101.9
	L 7.186 102.9
	M 6.78 101.9
	L 7.367 102.7
	M 6.192 101.1
	L 6.599 102
	L 6.807 103
	M 6.599 102
	L 7.005 103
	L 7.593 103.8
	M 7.005 103
	L 7.412 103.9
	M 4.158 96.56
	L 4.366 97.54
	L 4.366 98.54
	M 4.366 97.54
	L 4.574 98.52
	L 4.981 99.43
	M 4.574 98.52
	L 4.782 99.5
	L 4.782 100.5
	L 4.99 101.5
	M 4.782 100.5
	L 4.782 101.5
	M 4.782 99.5
	L 4.99 100.5
	L 5.397 101.4
	M 4.99 100.5
	L 5.198 101.5
	L 5.605 102.4
	L 5.812 103.3
	M 5.605 102.4
	L 6.011 103.3
	L 6.599 104.1
	M 6.011 103.3
	L 6.418 104.2
	M 5.198 101.5
	L 5.406 102.4
	L 5.406 103.4
	M 5.406 102.4
	L 5.614 103.4
	M 0 77
	L 0 78
	L 0.2079 78.98
	M 0 78
	L 0 79
	L -0.2079 79.98
	L -0.2079 80.98
	M -0.2079 79.98
	L -0.4158 80.96
	M 0 79
	L 0 80
	L -0.2079 80.98
	M 0 80
	L 0 81
	L -0.2079 81.98
	L -0.2079 82.98
	M -0.2079 81.98
	L -0.4158 82.96
	L -0.8226 83.87
	L -1.41 84.68
	M -0.8226 83.87
	L -1.229 84.78
	L -1.437 85.76
	M -1.229 84.78
	L -1.636 85.7
	M -0.4158 82.96
	L -0.6237 83.93
	L -0.6237 84.93
	M -0.6237 83.93
	L -0.8316 84.91
	L -0.8316 85.91
	L -1.04 86.89
	M -0.8316 85.91
	L -0.8316 86.91
	M -0.8316 84.91
	L -1.04 85.89
	L -1.04 86.89
	M -1.04 85.89
	L -1.247 86.87
	M 0 81
	L 0 82
	L 0.2079 82.98
	M 0 82
	L 0 83
	L -0.2079 83.98
	L -0.6146 84.89
	M -0.2079 83.98
	L -0.4158 84.96
	L -0.4158 85.96
	M -0.4158 84.96
	L -0.6237 85.93
	M 0 83
	L 0 84
	L -0.2079 84.98
	M 0 84
	L 0 85
	L 0.2079 85.98
	L 0.2079 86.98
	M 0.2079 85.98
	L 0.4158 86.96
	M 0 85
	L 0 86
	L -0.2079 86.98
	M 0 86
	L 0 87
	L -0.2079 87.98
	L -0.6146 88.89
	M -0.2079 87.98
	L -0.4158 88.96
	L -0.4158 89.96
	M -0.4158 88.96
	L -0.6237 89.93
	L -1.03 90.85
	L -1.618 91.66
	M -1.03 90.85
	L -1.437 91.76
	L -1.645 92.74
	M -1.437 91.76
	L -1.844 92.68
	M -0.6237 89.93
	L -0.8316 90.91
	L -1.238 91.83
	M -0.8316 90.91
	L -1.04 91.89
	L -1.04 92.89
	M -1.04 91.89
	L -1.247 92.87
	L -1.654 93.78
	L -2.242 94.59
	M -1.654 93.78
	L -2.061 94.7
	L -2.269 95.67
	M -2.061 94.7
	L -2.468 95.61
	L -2.676 96.59
	L -3.082 97.5
	M -2.676 96.59
	L -2.884 97.57
	L -2.884 98.57
	M -2.884 97.57
	L -3.091 98.54
	M -2.468 95.61
	L -2.874 96.52
	L -3.462 97.33
	M -2.874 96.52
	L -3.281 97.44
	M -1.247 92.87
	L -1.455 93.85
	L -1.862 94.76
	M -1.455 93.85
	L -1.663 94.83
	L -2.07 95.74
	L -2.658 96.55
	M -2.07 95.74
	L -2.477 96.65
	M -1.663 94.83
	L -1.871 95.8
	L -2.278 96.72
	M -1.871 95.8
	L -2.079 96.78
	L -2.079 97.78
	L -2.287 98.76
	M -2.079 97.78
	L -2.079 98.78
	M -2.079 96.78
	L -2.287 97.76
	L -2.694 98.67
	M -2.287 97.76
	L -2.495 98.74
	L -2.495 99.74
	M -2.495 98.74
	L -2.703 99.72
	L -2.703 100.7
	L -2.911 101.7
	M -2.703 100.7
	L -2.703 101.7
	L -2.911 102.7
	L -2.911 103.7
	M -2.911 102.7
	L -3.119 103.7
	M -2.703 101.7
	L -2.703 102.7
	L -2.911 103.7
	M -2.703 102.7
	L -2.703 103.7
	L -2.495 104.7
	M -2.703 103.7
	L -2.703 104.7
	M -2.703 99.72
	L -2.911 100.7
	L -3.318 101.6
	M -2.911 100.7
	L -3.119 101.7
	L -3.525 102.6
	L -4.113 103.4
	M -3.525 102.6
	L -3.932 103.5
	L -4.14 104.5
	M -3.932 103.5
	L -4.339 104.4
	M -3.119 101.7
	L -3.327 102.7
	L -3.733 103.6
	M -3.327 102.7
	L -3.534 103.6
	L -3.534 104.6
	L -3.742 105.6
	M -3.534 104.6
	L -3.534 105.6
	L -3.327 106.6
	M -3.534 105.6
	L -3.534 106.6
	M -3.534 103.6
	L -3.742 104.6
	L -4.149 105.5
	M -3.742 104.6
	L -3.95 105.6
	L -3.95 106.6
	M -3.95 105.6
	L -4.158 106.6
	M 0 87
	L 0 88
	L -0.2079 88.98
	M 0 88
	L 0 89
	L -0.2079 89.98
	L -0.6146 90.89
	M -0.2079 89.98
	L -0.4158 90.96
	L -0.4158 91.96
	M -0.4158 90.96
	L -0.6237 91.93
	M 0 89
	L 0 90
	L 0.2079 90.98
	M 0 90
	L 0 91
	L 0.2079 91.98
	L 0.2079 92.98
	M 0.2079 91.98
	L 0.4158 92.96
	L 0.4158 93.96
	L 0.6237 94.93
	M 0.4158 93.96
	L 0.4158 94.96
	M 0.4158 92.96
	L 0.6237 93.93
	L 0.6237 94.93
	M 0.6237 93.93
	L 0.8316 94.91
	L 1.238 95.83
	M 0.8316 94.91
	L 1.04 95.89
	M 0 91
	L 0 92
	L -0.2079 92.98
	M 0 92
	L 0 93
	L 0.2079 93.98
	M 0 93
	L 0 94
	L -0.2079 94.98
	L -0.6146 95.89
	M -0.2079 94.98
	L -0.4158 95.96
	M 0 94
	L 0 95
	L -0.2079 95.98
	M 0 95
	L 0 96
	L 0.2079 96.98
	M 0 96
	L 0 97
"/>
</svg>
