<svg version="1.1" baseProfile="full" xmlns="http://www.w3.org/2000/svg"
width="159.5" height="1024"
viewBox="-10.56 -94.15 14.82 95.15"
>
<rect x="-10.56" y="-94.15" width="100%" height="100%" fill="white" />
<path stroke="green" stroke-width="0.04" stroke-linecap="round" fill="none"
transform="scale(1 -1)"
d="	M 0 0
	L 0 1
	L -0.2079 1.978
	M 0 1
	L 0 2
	L -0.2079 2.978
	L -0.6146 3.892
	M -0.2079 2.978
	L -0.4158 3.956
	L -0.4158 4.956
	M -0.4158 3.956
	L -0.6237 4.934
	M 0 2
	L 0 3
	L -0.2079 3.978
	M 0 3
	L 0 4
	L -0.2079 4.978
	L -0.2079 5.978
	M -0.2079 4.978
	L -0.4158 5.956
	L -0.8226 6.87
	L -1.41 7.679
	M -0.8226 6.87
	L -1.229 7.783
	M -0.4158 5.956
	L -0.6237 6.934
	L -0.6237 7.934
	M -0.6237 6.934
	L -0.8316 7.913
	M 0 4
	L 0 5
	L -0.2079 5.978
	M 0 5
	L 0 6
	L -0.2079 6.978
	L -0.6146 7.892
	M -0.2079 6.978
	L -0.4158 7.956
	M 0 6
	L 0 7
	L 0.2079 7.978
	M 0 7
	L 0 8
	L 0.2079 8.978
	L 0.6146 9.892
	M 0.2079 8.978
	L 0.4158 9.956
	M 0 8
	L 0 9
	L -0.2079 9.978
	M 0 9
	L 0 10
	L 0.2079 10.98
	M 0 10
	L 0 11
	L 0.2079 11.98
	L 0.2079 12.98
	M 0.2079 11.98
	L 0.4158 12.96
	L 0.8226 13.87
	M 0.4158 12.96
	L 0.6237 13.93
	L 0.6237 14.93
	L 0.4158 15.91
	M 0.6237 14.93
	L 0.6237 15.93
	M 0.6237 13.93
	L 0.8316 14.91
	L 0.8316 15.91
	M 0.8316 14.91
	L 1.04 15.89
	M 0 11
	L 0 12
	L -0.2079 12.98
	M 0 12
	L 0 13
	L -0.2079 13.98
	L -0.6146 14.89
	M -0.2079 13.98
	L -0.4158 14.96
	M 0 13
	L 0 14
	L 0.2079 14.98
	M 0 14
	L 0 15
	L -0.2079 15.98
	L -0.6146 16.89
	M -0.2079 15.98
	L -0.4158 16.96
	L -0.4158 17.96
	M -0.4158 16.96
	L -0.6237 17.93
	L -0.6237 18.93
	L -0.8316 19.91
	M -0.6237 18.93
	L -0.6237 19.93
	L -0.4158 20.91
	M -0.6237 19.93
	L -0.6237 20.93
	M -0.6237 17.93
	L -0.8316 18.91
	L -1.238 19.83
	M -0.8316 18.91
	L -1.04 19.89
	L -1.04 20.89
	L -0.8316 21.87
	M -1.04 20.89
	L -1.04 21.89
	L -1.247 22.87
	L -1.654 23.78
	M -1.247 22.87
	L -1.455 23.85
	L -1.455 24.85
	M -1.455 23.85
	L -1.663 24.83
	M -1.04 21.89
	L -1.04 22.89
	L -1.247 23.87
	M -1.04 22.89
	L -1.04 23.89
	L -0.8316 24.87
	L -0.8316 25.87
	M -0.8316 24.87
	L -0.6237 25.85
	L -0.217 26.76
	M -0.6237 25.85
	L -0.4158 26.83
	M -1.04 23.89
	L -1.04 24.89
	L -1.247 25.87
	M -1.04 24.89
	L -1.04 25.89
	M -1.04 19.89
	L -1.247 20.87
	L -1.654 21.78
	M -1.247 20.87
	L -1.455 21.85
	L -1.862 22.76
	L -2.45 23.57
	M -1.862 22.76
	L -2.269 23.67
	L -2.477 24.65
	M -2.269 23.67
	L -2.676 24.59
	M -1.455 21.85
	L -1.663 22.83
	L -2.07 23.74
	M -1.663 22.83
	L -1.871 23.8
	L -1.871 24.8
	L -1.663 25.78
	M -1.871 24.8
	L -1.871 25.8
	M -1.871 23.8
	L -2.079 24.78
	L -2.079 25.78
	M -2.079 24.78
	L -2.287 25.76
	M 0 15
	L 0 16
	L -0.2079 16.98
	M 0 16
	L 0 17
	L -0.2079 17.98
	L -0.2079 18.98
	M -0.2079 17.98
	L -0.4158 18.96
	M 0 17
	L 0 18
	L 0.2079 18.98
	M 0 18
	L 0 19
	L -0.2079 19.98
	L -0.2079 20.98
	M -0.2079 19.98
	L -0.4158 20.96
	L -0.8226 21.87
	L -1.03 22.85
	M -0.8226 21.87
	L -1.229 22.78
	M -0.4158 20.96
	L -0.6237 21.93
	L -1.03 22.85
	M -0.6237 21.93
	L -0.8316 22.91
	L -0.8316 23.91
	M -0.8316 22.91
	L -1.04 23.89
	M 0 19
	L 0 20
	L -0.2079 20.98
	M 0 20
	L 0 21
	L 0.2079 21.98
	L 0.2079 22.98
	M 0.2079 21.98
	L 0.4158 22.96
	L 0.8226 23.87
	M 0.4158 22.96
	L 0.6237 23.93
	M 0 21
	L 0 22
	L -0.2079 22.98
	M 0 22
	L 0 23
	L 0.2079 23.98
	L 0.2079 24.98
	M 0.2079 23.98
	L 0.4158 24.96
	L 0.8226 25.87
	M 0.4158 24.96
	L 0.6237 25.93
	L 0.6237 26.93
	L 0.8316 27.91
	M 0.6237 26.93
	L 0.6237 27.93
	M 0.6237 25.93
	L 0.8316 26.91
	L 1.238 27.83
	M 0.8316 26.91
	L 1.04 27.89
	M 0 23
	L 0 24
	L -0.2079 24.98
	M 0 24
	L 0 25
	L 0.2079 25.98
	L 0.6146 26.89
	M 0.2079 25.98
	L 0.4158 26.96
	M 0 25
	L 0 26
	L -0.2079 26.98
	M 0 26
	L 0 27
	L 0.2079 27.98
	M 0 27
	L 0 28
	L 0.2079 28.98
	L 0.2079 29.98
	M 0.2079 28.98
	L 0.4158 29.96
	L 0.4158 30.96
	L 0.2079 31.93
	M 0.4158 30.96
	L 0.4158 31.96
	L 0.6237 32.93
	M 0.4158 31.96
	L 0.4158 32.96
	M 0.4158 29.96
	L 0.6237 30.93
	L 0.6237 31.93
	M 0.6237 30.93
	L 0.8316 31.91
	L 1.238 32.83
	M 0.8316 31.91
	L 1.04 32.89
	L 1.446 33.8
	L 1.654 34.78
	M 1.446 33.8
	L 1.853 34.72
	L 2.441 35.53
	M 1.853 34.72
	L 2.26 35.63
	L 2.468 36.61
	L 2.874 37.52
	M 2.468 36.61
	L 2.676 37.59
	M 2.26 35.63
	L 2.667 36.54
	L 3.254 37.35
	M 2.667 36.54
	L 3.073 37.46
	M 1.04 32.89
	L 1.247 33.87
	L 1.247 34.87
	M 1.247 33.87
	L 1.455 34.85
	L 1.862 35.76
	L 2.45 36.57
	M 1.862 35.76
	L 2.269 36.67
	M 1.455 34.85
	L 1.663 35.83
	L 1.663 36.83
	M 1.663 35.83
	L 1.871 36.8
	L 2.278 37.72
	M 1.871 36.8
	L 2.079 37.78
	M 0 28
	L 0 29
	L 0.2079 29.98
	M 0 29
	L 0 30
	L -0.2079 30.98
	L -0.2079 31.98
	M -0.2079 30.98
	L -0.4158 31.96
	M 0 30
	L 0 31
	L -0.2079 31.98
	M 0 31
	L 0 32
	L 0.2079 32.98
	M 0 32
	L 0 33
	L -0.2079 33.98
	L -0.6146 34.89
	M -0.2079 33.98
	L -0.4158 34.96
	L -0.8226 35.87
	L -1.41 36.68
	M -0.8226 35.87
	L -1.229 36.78
	L -1.437 37.76
	M -1.229 36.78
	L -1.636 37.7
	M -0.4158 34.96
	L -0.6237 35.93
	L -1.03 36.85
	M -0.6237 35.93
	L -0.8316 36.91
	L -0.8316 37.91
	M -0.8316 36.91
	L -1.04 37.89
	L -1.04 38.89
	L -0.8316 39.87
	M -1.04 38.89
	L -1.04 39.89
	M -1.04 37.89
	L -1.247 38.87
	L -1.247 39.87
	M -1.247 38.87
	L -1.455 39.85
	M 0 33
	L 0 34
	L -0.2079 34.98
	M 0 34
	L 0 35
	L 0.2079 35.98
	M 0 35
	L 0 36
	L -0.2079 36.98
	L -0.2079 37.98
	M -0.2079 36.98
	L -0.4158 37.96
	M 0 36
	L 0 37
	L -0.2079 37.98
	M 0 37
	L 0 38
	L 0.2079 38.98
	L 0.2079 39.98
	M 0.2079 38.98
	L 0.4158 39.96
	M 0 38
	L 0 39
	L 0.2079 39.98
	M 0 39
	L 0 40
	L 0.2079 40.98
	L 0.6146 41.89
	M 0.2079 40.98
	L 0.4158 41.96
	L 0.4158 42.96
	L 0.6237 43.93
	M 0.4158 42.96
	L 0.4158 43.96
	M 0.4158 41.96
	L 0.6237 42.93
	L 1.03 43.85
	M 0.6237 42.93
	L 0.8316 43.91
	L 1.238 44.83
	L 1.826 45.64
	M 1.238 44.83
	L 1.645 45.74
	M 0.8316 43.91
	L 1.04 44.89
	L 1.04 45.89
	M 1.04 44.89
	L 1.247 45.87
	M 0 40
	L 0 41
	L -0.2079 41.98
	M 0 41
	L 0 42
	L -0.2079 42.98
	L -0.2079 43.98
	M -0.2079 42.98
	L -0.4158 43.96
	M 0 42
	L 0 43
	L 0.2079 43.98
	M 0 43
	L 0 44
	L 0.2079 44.98
	L 0.6146 45.89
	M 0.2079 44.98
	L 0.4158 45.96
	M 0 44
	L 0 45
	L -0.2079 45.98
	M 0 45
	L 0 46
	L -0.2079 46.98
	L -0.2079 47.98
	M -0.2079 46.98
	L -0.4158 47.96
	L -0.8226 48.87
	L -1.41 49.68
	M -0.8226 48.87
	L -1.229 49.78
	L -1.437 50.76
	M -1.229 49.78
	L -1.636 50.7
	M -0.4158 47.96
	L -0.6237 48.93
	L -1.03 49.85
	M -0.6237 48.93
	L -0.8316 49.91
	L -0.8316 50.91
	L -0.6237 51.89
	M -0.8316 50.91
	L -0.8316 51.91
	M -0.8316 49.91
	L -1.04 50.89
	L -1.446 51.8
	M -1.04 50.89
	L -1.247 51.87
	L -1.247 52.87
	M -1.247 51.87
	L -1.455 52.85
	L -1.862 53.76
	L -2.45 54.57
	M -1.862 53.76
	L -2.269 54.67
	L -2.477 55.65
	M -2.269 54.67
	L -2.676 55.59
	L -3.263 56.4
	L -4.007 57.07
	M -3.263 56.4
	L -3.851 57.21
	M -2.676 55.59
	L -3.082 56.5
	L -3.29 57.48
	M -3.082 56.5
	L -3.489 57.41
	L -3.697 58.39
	L -3.697 59.39
	M -3.697 58.39
	L -3.905 59.37
	M -3.489 57.41
	L -3.896 58.33
	L -4.484 59.14
	M -3.896 58.33
	L -4.303 59.24
	M -1.455 52.85
	L -1.663 53.83
	L -2.07 54.74
	M -1.663 53.83
	L -1.871 54.8
	L -2.278 55.72
	L -2.866 56.53
	M -2.278 55.72
	L -2.685 56.63
	M -1.871 54.8
	L -2.079 55.78
	L -2.486 56.7
	M -2.079 55.78
	L -2.287 56.76
	L -2.287 57.76
	M -2.287 56.76
	L -2.495 57.74
	L -2.495 58.74
	L -2.703 59.72
	M -2.495 58.74
	L -2.495 59.74
	L -2.287 60.72
	M -2.495 59.74
	L -2.495 60.74
	L -2.703 61.72
	L -3.11 62.63
	M -2.703 61.72
	L -2.911 62.69
	M -2.495 60.74
	L -2.495 61.74
	L -2.703 62.72
	M -2.495 61.74
	L -2.495 62.74
	L -2.287 63.72
	M -2.495 62.74
	L -2.495 63.74
	M -2.495 57.74
	L -2.703 58.72
	L -3.11 59.63
	M -2.703 58.72
	L -2.911 59.69
	L -3.318 60.61
	L -3.905 61.42
	M -3.318 60.61
	L -3.724 61.52
	L -3.932 62.5
	M -3.724 61.52
	L -4.131 62.43
	M -2.911 59.69
	L -3.119 60.67
	L -3.525 61.59
	M -3.119 60.67
	L -3.327 61.65
	L -3.327 62.65
	M -3.327 61.65
	L -3.534 62.63
	L -3.941 63.54
	L -4.529 64.35
	M -3.941 63.54
	L -4.348 64.46
	L -4.936 65.26
	L -5.342 66.18
	M -4.936 65.26
	L -5.524 66.07
	M -4.348 64.46
	L -4.755 65.37
	L -5.342 66.18
	M -4.755 65.37
	L -5.161 66.28
	L -5.749 67.09
	L -6.492 67.76
	M -5.749 67.09
	L -6.337 67.9
	L -6.744 68.81
	L -7.332 69.62
	M -6.744 68.81
	L -7.15 69.73
	L -7.358 70.71
	M -7.15 69.73
	L -7.557 70.64
	M -6.337 67.9
	L -6.925 68.71
	L -7.668 69.38
	M -6.925 68.71
	L -7.513 69.52
	L -7.919 70.43
	M -7.513 69.52
	L -8.1 70.33
	M -5.161 66.28
	L -5.568 67.2
	L -6.156 68.01
	M -5.568 67.2
	L -5.975 68.11
	L -6.563 68.92
	L -6.969 69.83
	M -6.563 68.92
	L -7.15 69.73
	M -5.975 68.11
	L -6.382 69.02
	L -6.59 70
	M -6.382 69.02
	L -6.788 69.94
	M -3.534 62.63
	L -3.742 63.61
	L -4.149 64.52
	M -3.742 63.61
	L -3.95 64.58
	L -4.357 65.5
	L -4.945 66.31
	M -4.357 65.5
	L -4.764 66.41
	M -3.95 64.58
	L -4.158 65.56
	L -4.565 66.48
	M -4.158 65.56
	L -4.366 66.54
	L -4.773 67.45
	L -4.981 68.43
	M -4.773 67.45
	L -5.18 68.37
	L -5.767 69.18
	L -6.511 69.85
	M -5.767 69.18
	L -6.355 69.99
	L -6.762 70.9
	M -6.355 69.99
	L -6.943 70.8
	M -5.18 68.37
	L -5.586 69.28
	L -5.794 70.26
	M -5.586 69.28
	L -5.993 70.2
	L -6.201 71.17
	L -6.608 72.09
	M -6.201 71.17
	L -6.409 72.15
	L -6.409 73.15
	M -6.409 72.15
	L -6.617 73.13
	M -5.993 70.2
	L -6.4 71.11
	L -6.988 71.92
	M -6.4 71.11
	L -6.807 72.02
	L -7.014 73
	M -6.807 72.02
	L -7.213 72.94
	M -4.366 66.54
	L -4.574 67.52
	L -4.981 68.43
	M -4.574 67.52
	L -4.782 68.5
	L -4.782 69.5
	M -4.782 68.5
	L -4.99 69.48
	L -5.397 70.39
	L -5.984 71.2
	M -5.397 70.39
	L -5.803 71.3
	M -4.99 69.48
	L -5.198 70.45
	L -5.605 71.37
	M -5.198 70.45
	L -5.406 71.43
	L -5.406 72.43
	L -5.198 73.41
	M -5.406 72.43
	L -5.406 73.43
	M -5.406 71.43
	L -5.614 72.41
	L -6.02 73.32
	M -5.614 72.41
	L -5.822 73.39
	L -5.822 74.39
	L -5.614 75.37
	M -5.822 74.39
	L -5.822 75.39
	L -6.029 76.37
	L -6.029 77.37
	M -6.029 76.37
	L -6.237 77.34
	M -5.822 75.39
	L -5.822 76.39
	L -5.614 77.37
	M -5.822 76.39
	L -5.822 77.39
	M -5.822 73.39
	L -6.029 74.37
	L -6.029 75.37
	M -6.029 74.37
	L -6.237 75.34
	L -6.644 76.26
	L -7.232 77.07
	M -6.644 76.26
	L -7.051 77.17
	L -7.259 78.15
	M -7.051 77.17
	L -7.458 78.09
	M -6.237 75.34
	L -6.445 76.32
	L -6.852 77.24
	M -6.445 76.32
	L -6.653 77.3
	L -6.653 78.3
	L -6.861 79.28
	M -6.653 78.3
	L -6.653 79.3
	L -6.861 80.28
	L -7.268 81.19
	M -6.861 80.28
	L -7.069 81.26
	L -7.069 82.26
	M -7.069 81.26
	L -7.277 82.24
	M -6.653 79.3
	L -6.653 80.3
	L -6.445 81.28
	M -6.653 80.3
	L -6.653 81.3
	L -6.861 82.28
	L -6.861 83.28
	M -6.861 82.28
	L -7.069 83.26
	L -7.069 84.26
	L -6.861 85.24
	M -7.069 84.26
	L -7.069 85.26
	M -7.069 83.26
	L -7.277 84.24
	L -7.684 85.15
	M -7.277 84.24
	L -7.485 85.21
	L -7.485 86.21
	M -7.485 85.21
	L -7.693 86.19
	M -6.653 81.3
	L -6.653 82.3
	L -6.861 83.28
	M -6.653 82.3
	L -6.653 83.3
	L -6.445 84.28
	M -6.653 83.3
	L -6.653 84.3
	L -6.861 85.28
	L -7.268 86.19
	M -6.861 85.28
	L -7.069 86.26
	L -7.069 87.26
	M -7.069 86.26
	L -7.277 87.24
	M -6.653 84.3
	L -6.653 85.3
	L -6.861 86.28
	M -6.653 85.3
	L -6.653 86.3
	L -6.445 87.28
	L -6.039 88.19
	M -6.445 87.28
	L -6.237 88.26
	L -6.237 89.26
	L -6.445 90.24
	M -6.237 89.26
	L -6.237 90.26
	M -6.237 88.26
	L -6.029 89.24
	L -6.029 90.24
	M -6.029 89.24
	L -5.822 90.21
	L -5.415 91.13
	L -5.207 92.11
	M -5.415 91.13
	L -5.008 92.04
	M -5.822 90.21
	L -5.614 91.19
	L -5.614 92.19
	M -5.614 91.19
	L -5.406 92.17
	L -4.999 93.08
	M -5.406 92.17
	L -5.198 93.15
	M -6.653 86.3
	L -6.653 87.3
	L -6.861 88.28
	M -6.653 87.3
	L -6.653 88.3
	L -6.445 89.28
	M -6.653 88.3
	L -6.653 89.3
	L -6.445 90.28
	L -6.445 91.28
	M -6.445 90.28
	L -6.237 91.26
	M -6.653 89.3
	L -6.653 90.3
	L -6.445 91.28
	M -6.653 90.3
	L -6.653 91.3
	M -6.653 77.3
	L -6.861 78.28
	L -7.268 79.19
	M -6.861 78.28
	L -7.069 79.26
	L -7.476 80.17
	L -8.064 80.98
	M -7.476 80.17
	L -7.882 81.08
	M -7.069 79.26
	L -7.277 80.24
	L -7.684 81.15
	M -7.277 80.24
	L -7.485 81.21
	L -7.485 82.21
	L -7.693 83.19
	M -7.485 82.21
	L -7.485 83.21
	L -7.277 84.19
	M -7.485 83.21
	L -7.485 84.21
	M -7.485 81.21
	L -7.693 82.19
	L -8.099 83.11
	M -7.693 82.19
	L -7.901 83.17
	L -7.901 84.17
	L -7.693 85.15
	M -7.901 84.17
	L -7.901 85.17
	L -8.109 86.15
	L -8.515 87.06
	M -8.109 86.15
	L -8.316 87.13
	L -8.316 88.13
	M -8.316 87.13
	L -8.524 88.1
	M -7.901 85.17
	L -7.901 86.17
	L -8.109 87.15
	M -7.901 86.17
	L -7.901 87.17
	L -7.693 88.15
	M -7.901 87.17
	L -7.901 88.17
	L -7.693 89.15
	L -7.693 90.15
	M -7.693 89.15
	L -7.485 90.13
	L -7.078 91.04
	M -7.485 90.13
	L -7.277 91.1
	M -7.901 88.17
	L -7.901 89.17
	L -8.109 90.15
	M -7.901 89.17
	L -7.901 90.17
	L -7.693 91.15
	M -7.901 90.17
	L -7.901 91.17
	M -7.901 83.17
	L -8.109 84.15
	L -8.515 85.06
	M -8.109 84.15
	L -8.316 85.13
	L -8.316 86.13
	M -8.316 85.13
	L -8.524 86.1
	L -8.931 87.02
	L -9.519 87.83
	M -8.931 87.02
	L -9.338 87.93
	M -8.524 86.1
	L -8.732 87.08
	L -9.139 88
	M -8.732 87.08
	L -8.94 88.06
	L -8.94 89.06
	M -8.94 88.06
	L -9.148 89.04
	L -9.148 90.04
	L -9.356 91.02
	M -9.148 90.04
	L -9.148 91.04
	M -9.148 89.04
	L -9.356 90.02
	L -9.356 91.02
	M -9.356 90.02
	L -9.564 90.99
	M 0 46
	L 0 47
	L 0.2079 47.98
	M 0 47
	L 0 48
	L -0.2079 48.98
	L -0.6146 49.89
	M -0.2079 48.98
	L -0.4158 49.96
	M 0 48
	L 0 49
	L -0.2079 49.98
	M 0 49
	L 0 50
	L 0.2079 50.98
	L 0.2079 51.98
	M 0.2079 50.98
	L 0.4158 51.96
	L 0.8226 52.87
	M 0.4158 51.96
	L 0.6237 52.93
	L 0.6237 53.93
	L 0.8316 54.91
	M 0.6237 53.93
	L 0.6237 54.93
	M 0.6237 52.93
	L 0.8316 53.91
	L 0.8316 54.91
	M 0.8316 53.91
	L 1.04 54.89
	L 1.446 55.8
	M 1.04 54.89
	L 1.247 55.87
	M 0 50
	L 0 51
	L -0.2079 51.98
	M 0 51
	L 0 52
	L -0.2079 52.98
	L -0.6146 53.89
	M -0.2079 52.98
	L -0.4158 53.96
	L -0.4158 54.96
	M -0.4158 53.96
	L -0.6237 54.93
	M 0 52
	L 0 53
	L 0.2079 53.98
	M 0 53
	L 0 54
	L 0.2079 54.98
	L 0.2079 55.98
	M 0.2079 54.98
	L 0.4158 55.96
	M 0 54
	L 0 55
	L -0.2079 55.98
	M 0 55
	L 0 56
	L 0.2079 56.98
	M 0 56
	L 0 57
	L -0.2079 57.98
	L -0.6146 58.89
	M -0.2079 57.98
	L -0.4158 58.96
	L -0.4158 59.96
	L -0.6237 60.93
	M -0.4158 59.96
	L -0.4158 60.96
	M -0.4158 58.96
	L -0.6237 59.93
	L -1.03 60.85
	M -0.6237 59.93
	L -0.8316 60.91
	L -0.8316 61.91
	L -1.04 62.89
	M -0.8316 61.91
	L -0.8316 62.91
	L -0.6237 63.89
	L -0.6237 64.89
	M -0.6237 63.89
	L -0.4158 64.87
	M -0.8316 62.91
	L -0.8316 63.91
	L -1.04 64.89
	M -0.8316 63.91
	L -0.8316 64.91
	L -0.6237 65.89
	M -0.8316 64.91
	L -0.8316 65.91
	M -0.8316 60.91
	L -1.04 61.89
	L -1.446 62.8
	M -1.04 61.89
	L -1.247 62.87
	L -1.247 63.87
	M -1.247 62.87
	L -1.455 63.85
	L -1.862 64.76
	L -2.07 65.74
	M -1.862 64.76
	L -2.269 65.67
	M -1.455 63.85
	L -1.663 64.83
	L -2.07 65.74
	M -1.663 64.83
	L -1.871 65.8
	L -1.871 66.8
	M -1.871 65.8
	L -2.079 66.78
	L -2.079 67.78
	L -1.871 68.76
	M -2.079 67.78
	L -2.079 68.78
	M -2.079 66.78
	L -2.287 67.76
	L -2.694 68.67
	M -2.287 67.76
	L -2.495 68.74
	M 0 57
	L 0 58
	L 0.2079 58.98
	M 0 58
	L 0 59
	L 0.2079 59.98
	L 0.6146 60.89
	M 0.2079 59.98
	L 0.4158 60.96
	M 0 59
	L 0 60
	L -0.2079 60.98
	M 0 60
	L 0 61
	L 0.2079 61.98
	M 0 61
	L 0 62
	L 0.2079 62.98
	L 0.2079 63.98
	M 0.2079 62.98
	L 0.4158 63.96
	L 0.4158 64.96
	L 0.2079 65.93
	M 0.4158 64.96
	L 0.4158 65.96
	L 0.6237 66.93
	M 0.4158 65.96
	L 0.4158 66.96
	M 0.4158 63.96
	L 0.6237 64.93
	L 1.03 65.85
	M 0.6237 64.93
	L 0.8316 65.91
	L 1.238 66.83
	L 1.826 67.64
	M 1.238 66.83
	L 1.645 67.74
	M 0.8316 65.91
	L 1.04 66.89
	L 1.04 67.89
	M 1.04 66.89
	L 1.247 67.87
	L 1.654 68.78
	M 1.247 67.87
	L 1.455 68.85
	M 0 62
	L 0 63
	L -0.2079 63.98
	M 0 63
	L 0 64
	L 0.2079 64.98
	M 0 64
	L 0 65
	L 0.2079 65.98
	L 0.2079 66.98
	M 0.2079 65.98
	L 0.4158 66.96
	L 0.8226 67.87
	M 0.4158 66.96
	L 0.6237 67.93
	M 0 65
	L 0 66
	L 0.2079 66.98
	M 0 66
	L 0 67
"/>
</svg>
