<svg version="1.1" baseProfile="full" xmlns="http://www.w3.org/2000/svg"
width="827.3" height="1024"
viewBox="-22.59 -19.28 39.16 48.47"
>
<rect x="-22.59" y="-19.28" width="100%" height="100%" fill="white" />
<path stroke="green" stroke-width="0.04" stroke-linecap="round" fill="none"
transform="scale(1 -1)"
d="	M 0 0
	L 0 1
	L 0.3827 1.924
	L 0.3827 2.924
	L 0 3.848
	L 0 4.848
	L -0.3827 5.772
	L -0.3827 6.772
	L 0 7.696
	L 0.7071 8.403
	L 1.09 9.327
	L 1.797 10.03
	L 2.721 10.42
	L 3.428 11.12
	L 4.352 11.51
	L 5.059 12.21
	L 5.983 12.6
	L 6.983 12.6
	L 7.907 12.98
	L 8.907 12.98
	L 9.831 12.6
	L 10.54 11.89
	L 10.92 10.96
	L 10.92 9.965
	L 10.54 9.041
	L 10.54 8.041
	L 10.92 7.117
	L 11.63 6.41
	L 12.01 5.486
	L 12.72 4.779
	L 13.64 4.396
	L 14.64 4.396
	L 15.56 4.014
	M 0 0
	L 1 1.795e-09
	L 1.924 -0.3827
	L 2.631 -1.09
	L 3.014 -2.014
	L 3.014 -3.014
	L 2.631 -3.938
	L 2.631 -4.938
	L 2.248 -5.861
	L 1.541 -6.569
	L 0.6173 -6.951
	L -0.08979 -7.658
	L -0.4725 -8.582
	L -1.18 -9.289
	L -1.562 -10.21
	L -1.562 -11.21
	L -1.18 -12.14
	L -0.4725 -12.84
	L 0.4514 -13.23
	L 1.159 -13.93
	L 2.082 -14.32
	L 2.789 -15.02
	L 3.172 -15.95
	L 3.172 -16.95
	L 2.789 -17.87
	L 2.082 -18.58
	L 1.159 -18.96
	L 0.4514 -19.67
	L -0.4725 -20.05
	L -1.18 -20.76
	L -1.562 -21.68
	L -2.269 -22.39
	L -3.193 -22.77
	M 0 0
	L -1 1.795e-09
	L -1.924 0.3827
	L -2.631 1.09
	L -3.555 1.472
	L -4.555 1.472
	L -5.479 1.855
	L -6.479 1.855
	L -7.403 2.238
	L -8.403 2.238
	L -9.327 2.621
	L -10.03 3.328
	L -10.42 4.252
	L -10.42 5.252
	L -10.03 6.175
	L -10.03 7.175
	L -10.42 8.099
	L -11.12 8.806
	L -12.05 9.189
	L -12.75 9.896
	L -13.14 10.82
	L -13.84 11.53
	L -14.77 11.91
	L -15.48 12.62
	L -15.86 13.54
	L -16.56 14.25
	L -16.95 15.17
	L -17.65 15.88
	L -18.58 16.26
	L -19.58 16.26
	L -20.5 16.64
	L -21.21 17.35
	L -21.59 18.28
	M 0 0
	L -3.59e-09 -1
	L -0.3827 -1.924
	L -1.09 -2.631
	L -1.472 -3.555
	L -2.18 -4.262
	L -3.103 -4.645
	L -3.811 -5.352
	L -4.193 -6.276
	L -4.9 -6.983
	L -5.283 -7.907
	L -5.99 -8.614
	L -6.373 -9.538
	L -6.373 -10.54
	L -5.99 -11.46
	L -5.99 -12.46
	L -5.607 -13.39
	L -5.607 -14.39
	L -5.225 -15.31
	L -5.225 -16.31
	L -4.842 -17.23
	L -4.842 -18.23
	L -4.459 -19.16
	L -4.459 -20.16
	L -4.077 -21.08
	L -4.077 -22.08
	L -4.459 -23
	L -5.167 -23.71
	L -5.549 -24.64
	L -5.549 -25.64
	L -5.932 -26.56
	L -6.639 -27.27
	L -7.022 -28.19
"/>
</svg>
